<svg id="svg" version="1.1" xmlns="http://www.w3.org/2000/svg" xmlns:xlink="http://www.w3.org/1999/xlink" width="400" height="260.82089552238807" viewBox="0, 0, 400,260.82089552238807"><g id="svgg"><path id="path0" d="M147.554 15.408 C 119.387 17.373,102.185 48.284,115.085 73.754 C 128.869 100.970,167.872 103.076,184.367 77.495 C 202.596 49.225,181.155 13.064,147.554 15.408 M138.813 103.766 C 125.884 105.765,118.722 112.933,118.721 123.872 C 118.721 135.663,124.421 141.023,141.809 145.584 C 153.882 148.750,158.965 152.404,159.925 158.605 C 162.196 173.278,137.691 177.790,124.070 165.206 C 121.447 162.782,119.848 162.392,118.075 163.744 C 115.455 165.742,115.767 168.804,118.880 171.658 C 129.011 180.947,145.292 183.373,157.208 177.369 C 164.655 173.618,168.337 167.822,168.358 159.817 C 168.390 148.020,162.618 142.401,145.988 138.038 C 131.539 134.247,126.333 130.064,126.889 122.689 C 127.716 111.723,145.806 107.777,157.860 115.932 C 158.506 116.369,159.730 117.364,160.581 118.144 C 163.137 120.488,166.771 119.341,167.399 115.993 C 168.006 112.759,161.901 107.606,154.860 105.410 C 151.400 104.331,150.263 104.103,146.442 103.723 C 141.845 103.265,142.060 103.264,138.813 103.766 M199.026 123.552 C 184.706 126.673,176.454 141.288,179.401 158.310 C 181.232 168.883,188.420 177.110,198.304 179.944 C 200.750 180.646,207.969 180.637,210.046 179.930 C 214.486 178.418,218.256 176.062,220.968 173.101 C 223.112 170.761,223.258 170.825,223.407 174.180 C 223.647 179.577,227.853 181.536,230.765 177.607 C 231.319 176.859,231.807 130.612,231.298 127.071 C 230.917 124.422,227.639 122.999,225.259 124.450 C 223.890 125.285,223.583 126.012,223.391 128.870 C 223.167 132.203,222.857 132.492,221.554 130.584 C 217.793 125.075,207.203 121.769,199.026 123.552 M265.753 123.555 C 261.907 124.375,260.089 125.103,257.165 126.993 C 239.314 138.535,241.282 169.689,260.404 178.277 C 261.807 178.907,262.148 179.028,265.101 179.951 C 267.265 180.628,274.302 180.616,276.451 179.933 C 279.703 178.898,280.924 178.412,282.130 177.671 C 282.814 177.252,283.448 176.908,283.539 176.908 C 284.172 176.908,288.401 172.872,289.487 171.231 C 290.766 169.298,290.933 169.699,290.933 174.695 C 290.933 181.461,289.013 186.377,285.241 189.268 C 284.856 189.564,284.481 189.882,284.410 189.975 C 282.113 192.958,271.455 194.295,264.710 192.447 C 262.578 191.863,258.565 190.507,257.926 190.155 C 255.337 188.730,252.185 190.057,252.185 192.572 C 252.185 199.163,272.168 203.365,283.235 199.100 C 292.206 195.643,297.276 189.258,298.736 179.578 C 299.266 176.059,299.099 127.149,298.552 126.037 C 297.199 123.283,292.821 123.202,291.456 125.907 C 291.204 126.406,291.034 127.678,290.976 129.502 C 290.878 132.562,290.533 133.234,289.696 131.998 C 288.364 130.030,284.815 127.156,281.921 125.702 C 276.487 122.970,271.564 122.316,265.753 123.555 M332.551 123.431 C 322.316 125.545,315.031 133.282,312.540 144.684 C 311.988 147.210,312.075 156.991,312.670 159.295 C 315.536 170.399,321.681 177.090,331.637 179.944 C 333.959 180.610,341.154 180.615,342.693 179.952 C 343.249 179.713,343.873 179.517,344.081 179.517 C 345.784 179.517,351.716 175.679,354.123 173.019 C 356.191 170.734,356.425 170.832,356.425 173.986 C 356.425 179.332,360.740 181.595,363.653 177.777 L 364.384 176.818 364.462 152.793 C 364.506 139.579,364.467 128.141,364.376 127.376 C 363.977 124.026,359.934 122.659,357.530 125.061 L 356.556 126.035 356.467 128.901 C 356.370 132.067,356.171 132.360,355.010 131.050 C 354.660 130.656,354.102 130.030,353.769 129.660 C 349.224 124.606,339.989 121.895,332.551 123.431 M209.638 130.956 C 213.166 131.757,219.105 136.042,220.224 138.593 C 220.371 138.929,220.754 139.674,221.074 140.248 C 223.455 144.513,224.564 153.229,223.248 157.342 C 223.018 158.057,222.638 159.260,222.401 160.013 C 216.954 177.370,193.151 177.145,187.963 159.687 C 186.865 155.992,186.381 149.404,187.073 147.584 C 187.223 147.190,187.345 146.597,187.345 146.266 C 187.345 142.824,191.756 135.899,195.551 133.382 C 199.473 130.781,204.817 129.860,209.638 130.956 M276.093 130.880 C 296.268 135.257,296.398 168.397,276.257 172.599 C 263.622 175.235,252.815 165.764,252.739 151.990 C 252.684 142.047,257.050 135.165,265.753 131.476 C 268.094 130.483,272.969 130.203,276.093 130.880 M341.744 130.754 C 351.514 133.037,356.946 140.988,356.609 152.511 C 356.464 157.453,355.946 159.772,354.307 162.818 C 354.191 163.033,353.828 163.738,353.500 164.384 C 351.723 167.879,346.478 171.721,342.292 172.595 C 329.977 175.164,319.949 165.908,319.827 151.859 C 319.742 142.116,324.036 135.041,332.159 131.542 C 334.483 130.541,339.181 130.155,341.744 130.754 " stroke="none" fill="#052328" fill-rule="evenodd"></path><path id="path1" d="M86.758 55.751 C 84.032 55.975,80.750 56.396,79.638 56.663 C 73.761 58.075,70.387 59.271,66.145 61.443 C 52.088 68.642,42.542 80.670,38.390 96.412 C 36.377 104.044,36.427 114.754,38.511 122.374 C 39.176 124.807,40.464 128.707,41.010 129.941 C 42.056 132.307,43.661 135.475,44.262 136.361 C 44.602 136.861,44.879 137.322,44.879 137.384 C 44.879 138.226,51.251 145.985,53.887 148.352 C 54.995 149.348,56.035 150.282,56.196 150.428 C 58.390 152.406,63.572 155.708,67.058 157.350 C 71.035 159.223,72.058 159.597,78.017 161.353 C 88.471 164.434,103.529 162.768,114.278 157.343 C 120.483 154.210,128.870 147.578,131.762 143.518 L 132.275 142.798 130.460 141.996 C 122.356 138.417,118.425 132.527,118.409 123.940 C 118.386 112.129,126.804 104.662,141.547 103.416 L 143.562 103.246 143.381 101.525 C 143.282 100.579,143.043 99.195,142.851 98.450 C 142.659 97.705,142.422 96.559,142.324 95.903 C 142.172 94.891,142.041 94.689,141.457 94.562 C 129.272 91.914,118.000 82.046,113.320 69.928 C 112.127 66.839,110.907 61.884,110.898 60.094 C 110.895 59.470,110.780 59.267,110.437 59.282 C 110.186 59.292,109.159 59.001,108.154 58.635 C 106.477 58.024,104.517 57.469,101.109 56.642 C 98.141 55.921,90.476 55.445,86.758 55.751 M138.926 111.936 C 125.851 113.855,122.346 128.149,133.604 133.637 C 136.288 134.945,140.143 136.475,140.684 136.446 C 140.875 136.436,140.331 136.157,139.476 135.827 C 137.563 135.087,137.552 135.053,138.552 133.073 C 141.293 127.643,143.040 121.502,143.879 114.351 L 144.192 111.676 142.220 111.709 C 141.135 111.727,139.653 111.829,138.926 111.936 M166.132 112.463 C 167.886 114.465,167.839 116.290,165.982 118.216 C 164.601 119.649,164.648 119.943,166.060 118.703 C 168.248 116.782,168.338 114.259,166.282 112.446 L 165.558 111.807 166.132 112.463 M363.205 124.855 C 364.245 126.107,364.332 126.187,364.048 125.633 C 363.900 125.344,363.505 124.876,363.168 124.591 C 362.579 124.092,362.580 124.102,363.205 124.855 M298.677 126.158 C 298.795 126.445,298.951 138.363,299.024 152.642 L 299.157 178.604 299.210 152.772 C 299.258 129.954,299.217 126.865,298.864 126.288 C 298.644 125.930,298.560 125.871,298.677 126.158 M231.505 151.469 C 231.441 175.933,231.402 176.948,230.469 178.071 C 230.215 178.378,230.321 178.308,230.706 177.916 C 231.737 176.863,231.730 177.043,231.646 151.076 L 231.569 127.202 231.505 151.469 M364.639 151.729 C 364.639 165.075,364.671 170.497,364.710 163.777 C 364.748 157.057,364.748 146.137,364.710 139.511 C 364.671 132.884,364.639 138.382,364.639 151.729 M354.038 129.876 C 354.660 130.629,355.227 131.246,355.297 131.246 C 355.489 131.246,353.905 129.294,353.372 128.872 C 353.116 128.671,353.416 129.123,354.038 129.876 M289.106 131.104 C 289.106 131.209,289.341 131.593,289.628 131.958 C 289.915 132.322,290.150 132.536,290.150 132.431 C 290.150 132.327,289.915 131.943,289.628 131.578 C 289.341 131.213,289.106 131.000,289.106 131.104 M192.881 135.825 C 190.361 138.406,187.855 142.444,188.225 143.330 C 188.296 143.501,188.440 143.354,188.545 143.005 C 189.388 140.201,192.718 135.684,195.157 134.036 C 195.507 133.800,195.709 133.522,195.605 133.418 C 195.502 133.314,194.276 134.398,192.881 135.825 M258.815 135.877 C 258.022 136.703,257.204 137.611,256.997 137.897 C 256.790 138.182,257.472 137.536,258.512 136.462 C 259.552 135.387,260.403 134.478,260.403 134.442 C 260.406 134.259,260.139 134.500,258.815 135.877 M141.944 136.856 C 142.446 137.049,143.092 137.211,143.379 137.216 C 143.666 137.221,143.431 137.055,142.857 136.848 C 141.541 136.374,140.711 136.381,141.944 136.856 M144.292 137.463 C 144.508 137.595,145.153 137.774,145.727 137.862 C 146.971 138.052,146.214 137.669,144.814 137.400 C 144.219 137.286,144.037 137.308,144.292 137.463 M324.011 137.704 C 323.572 138.204,321.772 141.396,322.083 141.124 C 322.315 140.921,324.593 137.247,324.487 137.247 C 324.446 137.247,324.232 137.453,324.011 137.704 M147.684 138.404 C 148.187 138.607,148.774 138.778,148.989 138.785 C 149.675 138.806,148.719 138.372,147.684 138.193 L 146.771 138.035 147.684 138.404 M256.294 138.878 C 255.927 139.338,255.149 140.900,255.287 140.900 C 255.351 140.900,255.698 140.372,256.058 139.726 C 256.709 138.562,256.796 138.249,256.294 138.878 M153.033 140.070 C 153.177 140.219,153.646 140.416,154.077 140.507 C 154.618 140.621,154.739 140.596,154.468 140.426 C 153.834 140.028,152.730 139.753,153.033 140.070 M154.990 140.745 C 154.990 140.906,158.446 142.489,158.557 142.378 C 158.656 142.279,155.448 140.639,155.154 140.639 C 155.064 140.639,154.990 140.687,154.990 140.745 M254.446 142.346 C 254.279 142.713,254.147 143.153,254.152 143.326 C 254.158 143.499,254.336 143.241,254.548 142.752 C 254.994 141.725,254.899 141.350,254.446 142.346 M321.381 142.401 C 321.089 142.914,320.438 145.331,320.309 146.380 C 320.226 147.047,320.436 146.514,320.793 145.147 C 321.139 143.823,321.497 142.619,321.588 142.472 C 321.679 142.325,321.694 142.205,321.622 142.205 C 321.551 142.205,321.442 142.293,321.381 142.401 M158.904 142.599 C 158.904 142.673,159.562 143.154,160.367 143.669 C 165.760 147.119,168.378 152.408,168.358 159.817 C 168.337 167.716,164.686 173.544,157.370 177.355 C 156.357 177.883,155.577 178.364,155.637 178.424 C 156.320 179.108,162.842 174.247,165.023 171.429 C 168.789 166.561,170.087 156.649,167.570 151.974 C 167.420 151.696,166.981 150.822,166.594 150.033 C 165.233 147.252,163.810 145.697,160.538 143.418 C 159.190 142.479,158.904 142.336,158.904 142.599 M187.626 144.724 C 187.473 145.276,187.347 145.984,187.347 146.297 C 187.346 146.611,187.223 147.190,187.073 147.584 C 186.381 149.404,186.865 155.992,187.963 159.687 C 189.248 164.010,193.610 169.610,196.560 170.723 C 197.253 170.985,197.214 170.949,195.238 169.496 C 193.500 168.220,192.193 166.887,191.080 165.257 C 190.077 163.787,188.650 160.984,188.650 160.485 C 188.650 160.247,188.546 159.941,188.419 159.804 C 187.260 158.560,186.786 150.659,187.626 146.603 C 188.163 144.011,188.163 142.790,187.626 144.724 M253.651 144.579 C 253.490 145.038,253.371 145.602,253.385 145.831 C 253.399 146.061,253.574 145.729,253.774 145.094 C 254.191 143.763,254.087 143.327,253.651 144.579 M252.927 148.119 C 252.660 150.014,252.664 153.924,252.934 155.601 C 253.262 157.635,253.349 156.876,253.095 154.201 C 252.951 152.679,252.957 150.785,253.112 149.274 C 253.392 146.547,253.262 145.739,252.927 148.119 M319.974 148.989 C 319.974 149.778,320.023 150.101,320.083 149.706 C 320.142 149.312,320.142 148.666,320.083 148.271 C 320.023 147.877,319.974 148.200,319.974 148.989 M319.970 154.338 C 319.972 155.055,320.023 155.318,320.083 154.921 C 320.143 154.525,320.141 153.938,320.079 153.617 C 320.017 153.296,319.968 153.620,319.970 154.338 M320.299 156.817 C 320.440 158.058,321.441 161.360,321.621 161.179 C 321.680 161.121,321.543 160.556,321.317 159.923 C 321.091 159.291,320.740 158.069,320.536 157.208 C 320.221 155.877,320.185 155.818,320.299 156.817 M253.389 157.599 C 253.386 157.958,253.544 158.604,253.741 159.035 C 254.215 160.069,254.227 159.590,253.764 158.121 C 253.504 157.295,253.393 157.140,253.389 157.599 M254.161 160.339 C 254.161 160.483,254.329 160.894,254.534 161.252 C 254.739 161.611,254.906 161.787,254.906 161.644 C 254.906 161.500,254.739 161.089,254.534 160.731 C 254.329 160.372,254.161 160.196,254.161 160.339 M321.722 161.589 C 321.722 162.499,324.400 166.484,326.055 168.037 C 327.145 169.058,327.105 168.989,325.754 167.503 C 324.900 166.564,323.643 164.803,322.962 163.589 C 322.280 162.376,321.722 161.476,321.722 161.589 M255.316 162.818 C 255.539 163.249,255.780 163.601,255.852 163.601 C 255.923 163.601,255.800 163.249,255.577 162.818 C 255.355 162.387,255.114 162.035,255.042 162.035 C 254.970 162.035,255.094 162.387,255.316 162.818 M120.157 162.818 C 120.245 162.962,120.575 163.071,120.890 163.061 C 121.441 163.043,121.442 163.034,120.939 162.818 C 120.221 162.509,119.966 162.509,120.157 162.818 M122.274 163.660 C 122.688 163.980,123.536 164.714,124.158 165.291 C 126.386 167.359,131.027 170.203,133.072 170.752 C 133.431 170.849,132.588 170.352,131.199 169.649 C 128.980 168.525,125.971 166.592,124.933 165.623 C 123.124 163.936,122.076 163.079,121.823 163.079 C 121.657 163.079,121.860 163.340,122.274 163.660 M257.465 166.080 C 257.907 166.654,258.658 167.476,259.135 167.906 C 259.637 168.360,259.466 168.087,258.726 167.254 C 256.947 165.251,256.524 164.857,257.465 166.080 M289.533 171.179 C 289.280 171.606,288.411 172.689,287.602 173.584 C 286.494 174.811,286.407 174.955,287.247 174.168 C 288.444 173.049,290.284 170.693,290.102 170.511 C 290.042 170.450,289.785 170.751,289.533 171.179 M134.638 171.278 C 134.997 171.494,135.466 171.672,135.682 171.672 C 136.205 171.674,135.585 171.309,134.638 171.058 L 133.986 170.885 134.638 171.278 M197.636 171.306 C 197.915 171.517,198.267 171.686,198.419 171.681 C 198.571 171.677,198.467 171.501,198.189 171.290 C 197.910 171.079,197.558 170.910,197.406 170.915 C 197.254 170.920,197.358 171.096,197.636 171.306 M199.609 172.081 C 200.111 172.274,200.874 172.432,201.305 172.430 C 201.862 172.429,201.675 172.325,200.652 172.070 C 198.849 171.620,198.423 171.624,199.609 172.081 M220.233 173.865 L 218.288 175.995 220.056 174.299 C 221.499 172.916,222.616 171.600,222.253 171.713 C 222.212 171.725,221.303 172.694,220.233 173.865 M138.813 172.235 C 139.172 172.337,140.757 172.418,142.335 172.416 C 145.943 172.411,145.404 172.271,141.292 172.145 C 139.569 172.093,138.454 172.133,138.813 172.235 M353.156 174.103 L 351.598 175.734 353.229 174.176 C 354.744 172.730,354.979 172.472,354.786 172.472 C 354.746 172.472,354.012 173.206,353.156 174.103 M153.947 178.865 C 153.570 179.080,153.459 179.238,153.686 179.238 C 153.901 179.238,154.371 179.070,154.729 178.865 C 155.106 178.649,155.216 178.492,154.990 178.492 C 154.775 178.492,154.305 178.660,153.947 178.865 M298.665 179.541 C 298.574 179.994,298.513 180.674,298.530 181.050 C 298.547 181.427,298.666 181.101,298.795 180.325 C 299.046 178.814,298.939 178.170,298.665 179.541 M151.468 179.676 L 150.424 180.040 151.468 179.889 C 152.042 179.806,152.623 179.629,152.759 179.497 C 153.088 179.178,152.763 179.223,151.468 179.676 M147.423 180.449 L 145.205 180.788 147.293 180.648 C 148.441 180.571,149.556 180.406,149.772 180.282 C 150.231 180.016,150.277 180.012,147.423 180.449 M208.219 180.334 C 206.191 180.665,205.974 180.849,207.828 180.665 C 208.689 180.580,209.569 180.408,209.785 180.283 C 210.240 180.018,210.137 180.021,208.219 180.334 M138.356 180.741 C 138.607 180.806,139.018 180.806,139.269 180.741 C 139.521 180.675,139.315 180.622,138.813 180.622 C 138.311 180.622,138.105 180.675,138.356 180.741 M298.000 183.322 C 297.831 183.991,297.742 184.587,297.802 184.647 C 297.862 184.707,298.049 184.209,298.217 183.540 C 298.385 182.871,298.474 182.275,298.414 182.215 C 298.355 182.155,298.168 182.654,298.000 183.322 M297.140 185.917 C 297.059 186.200,296.914 186.667,296.817 186.954 C 296.719 187.241,296.831 187.146,297.064 186.742 C 297.298 186.339,297.443 185.872,297.388 185.705 C 297.332 185.538,297.221 185.633,297.140 185.917 M295.914 188.603 C 295.635 189.151,294.921 190.237,294.328 191.016 L 293.249 192.433 294.249 191.358 C 295.183 190.354,296.879 187.606,296.564 187.606 C 296.487 187.606,296.194 188.054,295.914 188.603 M291.977 193.738 C 291.343 194.384,290.883 194.912,290.955 194.912 C 291.026 194.912,291.604 194.384,292.237 193.738 C 292.871 193.092,293.331 192.564,293.259 192.564 C 293.188 192.564,292.610 193.092,291.977 193.738 " stroke="none" fill="#73dbd3" fill-rule="evenodd"></path><path id="path2" d="M0.000 130.463 L 0.000 260.926 200.000 260.926 L 400.000 260.926 400.000 130.463 L 400.000 0.000 200.000 0.000 L 0.000 0.000 0.000 130.463 M155.512 15.118 C 158.135 15.456,161.442 16.121,162.010 16.425 C 162.292 16.576,162.736 16.700,162.997 16.701 C 163.257 16.702,163.807 16.878,164.218 17.092 C 164.629 17.307,165.098 17.484,165.261 17.485 C 166.316 17.497,172.634 21.054,175.603 23.308 C 190.965 34.965,195.775 56.375,186.940 73.764 C 186.050 75.514,184.981 77.393,184.564 77.938 C 184.146 78.484,183.490 79.400,183.106 79.974 C 181.713 82.054,175.379 88.193,174.626 88.193 C 174.470 88.193,174.303 88.283,174.255 88.394 C 173.915 89.179,165.975 93.412,164.841 93.412 C 164.647 93.412,164.376 93.518,164.240 93.647 C 164.104 93.777,163.229 94.087,162.296 94.336 C 155.728 96.089,150.640 96.364,143.597 95.345 L 142.511 95.188 143.139 98.148 C 143.485 99.777,143.768 101.422,143.769 101.805 C 143.772 103.203,143.946 103.326,145.951 103.338 C 146.976 103.344,148.343 103.462,148.989 103.600 C 149.635 103.737,150.808 103.966,151.597 104.107 C 153.731 104.489,155.678 105.151,158.411 106.421 C 159.072 106.728,159.699 106.980,159.803 106.980 C 160.522 106.980,164.980 110.568,166.635 112.479 C 166.941 112.832,168.057 113.453,169.114 113.860 C 175.110 116.167,183.562 121.378,188.679 125.923 L 189.986 127.084 190.688 126.589 C 198.480 121.093,212.423 121.608,218.927 127.632 C 219.291 127.969,219.908 128.454,220.299 128.710 C 220.690 128.965,221.273 129.580,221.594 130.076 C 222.512 131.493,222.744 131.235,222.893 128.635 C 223.228 122.750,229.962 121.208,231.577 126.647 C 232.168 128.637,232.155 174.994,231.563 176.672 C 229.623 182.171,223.142 180.475,222.876 174.399 C 222.750 171.524,222.796 171.551,221.174 173.400 C 219.418 175.403,216.909 177.234,213.941 178.680 L 211.421 179.909 210.985 183.562 C 204.451 238.344,140.420 262.824,99.124 226.328 C 92.014 220.045,85.665 211.066,82.074 202.218 C 81.695 201.285,81.280 200.287,81.152 200.000 C 77.155 191.077,75.872 176.106,78.048 163.773 C 78.405 161.751,78.374 161.699,76.582 161.254 C 75.094 160.884,72.801 160.177,71.885 159.806 C 71.455 159.631,70.457 159.229,69.667 158.911 C 64.829 156.966,58.322 152.857,54.579 149.384 C 53.958 148.808,53.338 148.296,53.201 148.247 C 51.553 147.654,44.518 137.883,41.993 132.681 C 39.566 127.681,38.701 124.962,37.056 117.156 C 36.268 113.418,36.452 104.545,37.425 99.413 C 43.419 67.789,74.981 48.438,105.759 57.516 C 107.025 57.889,108.477 58.369,108.987 58.582 C 109.497 58.795,110.017 58.969,110.143 58.969 C 110.269 58.969,110.382 57.296,110.394 55.251 C 110.447 46.223,113.340 37.535,118.458 31.033 C 118.959 30.397,119.488 29.715,119.632 29.518 C 120.823 27.897,127.397 21.918,127.988 21.918 C 128.077 21.918,128.523 21.636,128.980 21.292 C 129.970 20.546,133.157 18.872,135.160 18.046 C 135.949 17.721,136.830 17.353,137.117 17.231 C 141.375 15.406,150.030 14.412,155.512 15.118 M275.930 123.095 C 280.576 124.072,284.853 126.459,288.339 130.021 L 290.352 132.077 290.449 129.222 C 290.623 124.154,293.877 121.869,297.492 124.276 C 299.523 125.628,299.403 124.057,299.496 150.554 C 299.608 182.256,299.453 183.789,295.519 189.954 C 289.213 199.838,273.972 204.093,261.057 199.576 C 260.626 199.425,259.922 199.213,259.491 199.104 C 256.289 198.295,252.071 195.201,251.668 193.366 C 250.993 190.295,254.795 188.009,257.753 189.705 C 258.411 190.083,262.712 191.532,264.188 191.873 C 264.905 192.039,265.635 192.266,265.809 192.378 C 267.075 193.195,275.619 193.103,278.539 192.241 C 286.702 189.831,290.430 184.231,290.398 174.429 L 290.386 170.776 289.688 171.689 C 286.807 175.460,283.049 178.060,277.756 179.947 C 274.159 181.230,265.219 180.988,262.483 179.535 C 262.263 179.418,261.706 179.240,261.244 179.138 C 260.782 179.037,260.404 178.869,260.404 178.766 C 260.404 178.663,260.023 178.440,259.556 178.271 C 248.433 174.243,241.655 157.119,245.488 142.727 C 247.463 135.308,254.354 126.724,259.622 125.119 C 259.980 125.009,260.395 124.823,260.544 124.706 C 261.016 124.331,264.939 123.164,265.753 123.157 C 266.184 123.153,266.712 123.032,266.928 122.889 C 267.418 122.563,274.130 122.717,275.930 123.095 M342.727 123.228 C 347.166 124.245,351.421 126.653,354.472 129.876 C 355.852 131.334,355.825 131.358,355.947 128.571 C 356.175 123.345,361.437 121.400,364.171 125.531 L 364.905 126.641 364.905 151.318 C 364.905 177.127,364.914 176.915,363.850 178.180 C 360.784 181.823,356.153 179.682,355.946 174.525 C 355.889 173.109,355.796 171.950,355.738 171.950 C 355.680 171.950,354.857 172.774,353.908 173.780 C 351.302 176.542,347.885 178.607,343.118 180.299 C 341.904 180.730,334.480 180.951,332.811 180.605 C 330.878 180.205,329.329 179.799,328.824 179.560 C 326.136 178.291,323.810 177.040,323.810 176.864 C 323.810 176.745,323.684 176.647,323.530 176.647 C 321.962 176.647,316.613 170.321,314.485 165.949 C 310.361 157.481,310.525 144.919,314.869 136.464 C 316.555 133.183,320.346 128.814,323.068 127.016 C 326.130 124.992,330.397 123.162,332.073 123.153 C 332.479 123.151,332.988 123.032,333.203 122.889 C 333.792 122.497,340.592 122.739,342.727 123.228 M202.740 130.947 C 202.524 131.076,201.761 131.266,201.044 131.369 C 200.326 131.472,198.896 131.967,197.866 132.469 L 195.994 133.381 197.906 135.951 C 205.045 145.543,209.627 156.997,210.867 168.348 C 211.240 171.766,211.264 171.811,212.408 171.225 C 228.340 163.068,226.251 135.323,209.402 131.304 C 207.496 130.849,203.282 130.624,202.740 130.947 M269.276 130.950 C 269.061 131.076,268.415 131.261,267.841 131.360 C 263.184 132.169,258.699 135.532,255.891 140.323 C 255.363 141.225,254.854 142.282,254.761 142.671 C 254.668 143.060,254.505 143.496,254.400 143.640 C 252.838 145.756,252.823 156.205,254.377 159.817 C 260.367 173.747,275.244 177.185,285.240 166.949 C 290.434 161.630,292.530 150.535,289.643 143.640 C 286.972 137.259,284.057 134.282,278.017 131.770 C 276.226 131.025,270.127 130.453,269.276 130.950 M335.812 130.960 C 335.597 131.082,334.861 131.262,334.177 131.361 C 327.584 132.312,321.789 139.297,320.415 147.949 C 319.939 150.949,320.463 158.271,321.208 159.016 C 321.347 159.155,321.461 159.488,321.461 159.756 C 321.461 164.047,328.605 170.932,334.377 172.204 C 356.607 177.105,365.621 140.985,344.423 131.952 C 342.049 130.941,336.900 130.348,335.812 130.960 " stroke="none" fill="#fbfbfb" fill-rule="evenodd"></path><path id="path3" d="M89.563 55.503 C 89.958 55.563,90.603 55.563,90.998 55.503 C 91.393 55.443,91.070 55.395,90.280 55.395 C 89.491 55.395,89.168 55.443,89.563 55.503 M85.523 55.766 C 85.992 55.824,86.697 55.823,87.089 55.764 C 87.481 55.704,87.097 55.657,86.236 55.658 C 85.375 55.660,85.054 55.708,85.523 55.766 M93.873 55.766 C 94.342 55.824,95.046 55.823,95.438 55.764 C 95.831 55.704,95.447 55.657,94.586 55.658 C 93.725 55.660,93.404 55.708,93.873 55.766 M79.061 56.621 C 78.536 56.789,78.511 56.831,78.930 56.838 C 79.217 56.842,79.687 56.744,79.974 56.621 C 80.639 56.335,79.953 56.335,79.061 56.621 M100.848 56.621 C 101.135 56.744,101.605 56.842,101.892 56.838 C 102.311 56.831,102.286 56.789,101.761 56.621 C 100.869 56.335,100.183 56.335,100.848 56.621 M52.185 71.363 C 51.116 72.440,50.300 73.320,50.372 73.320 C 50.444 73.320,51.377 72.440,52.446 71.363 C 53.515 70.287,54.331 69.406,54.260 69.406 C 54.188 69.406,53.254 70.287,52.185 71.363 M48.086 75.995 C 46.954 77.473,46.358 78.356,46.581 78.221 C 46.889 78.035,48.622 75.669,48.450 75.669 C 48.387 75.669,48.223 75.815,48.086 75.995 M39.288 92.517 C 39.192 92.899,39.164 93.263,39.225 93.324 C 39.287 93.386,39.416 93.123,39.512 92.741 C 39.608 92.358,39.636 91.995,39.574 91.934 C 39.513 91.872,39.384 92.135,39.288 92.517 M38.386 95.543 C 38.370 95.782,38.289 96.193,38.206 96.456 C 38.064 96.909,38.071 96.910,38.354 96.469 C 38.518 96.214,38.599 95.803,38.534 95.556 C 38.428 95.152,38.414 95.151,38.386 95.543 M37.457 99.819 C 37.359 100.342,37.331 100.823,37.395 100.887 C 37.459 100.951,37.591 100.574,37.689 100.051 C 37.788 99.527,37.816 99.046,37.752 98.983 C 37.688 98.919,37.556 99.295,37.457 99.819 M36.869 105.675 C 36.869 106.464,36.918 106.787,36.977 106.393 C 37.037 105.998,37.037 105.352,36.977 104.958 C 36.918 104.563,36.869 104.886,36.869 105.675 M36.871 112.590 C 36.873 113.451,36.922 113.772,36.980 113.303 C 37.038 112.834,37.037 112.129,36.977 111.737 C 36.918 111.345,36.870 111.729,36.871 112.590 M144.226 111.848 C 144.156 111.969,144.017 112.948,143.918 114.025 C 143.329 120.387,141.276 127.676,138.552 133.073 C 137.486 135.183,137.770 135.517,141.422 136.450 C 144.781 137.309,150.657 138.991,151.468 139.326 C 151.755 139.445,152.873 139.850,153.953 140.226 C 160.169 142.392,164.499 145.751,166.594 150.033 C 166.981 150.822,167.420 151.696,167.570 151.974 C 170.092 156.658,168.795 166.524,165.008 171.460 C 162.486 174.749,155.816 179.256,153.472 179.256 C 153.216 179.256,152.896 179.365,152.759 179.497 C 152.496 179.753,150.731 180.157,147.945 180.600 C 144.210 181.193,134.008 180.482,132.228 179.505 C 131.979 179.368,131.586 179.256,131.354 179.256 C 130.180 179.256,123.129 175.652,121.412 174.174 C 121.242 174.027,120.656 173.555,120.111 173.125 C 116.188 170.027,115.080 167.837,116.250 165.491 C 116.790 164.408,118.189 163.079,118.788 163.079 C 119.057 163.079,119.492 162.964,119.754 162.824 C 120.509 162.420,122.351 163.201,123.698 164.497 C 131.779 172.270,144.555 174.566,153.504 169.853 C 161.242 165.778,161.982 156.858,155.037 151.372 C 153.872 150.452,149.132 147.945,148.557 147.945 C 148.374 147.945,147.838 147.775,147.367 147.568 C 146.524 147.196,144.499 146.601,141.161 145.742 C 137.496 144.799,134.036 143.730,132.891 143.187 C 132.382 142.945,132.164 143.087,130.944 144.451 C 120.188 156.479,106.210 162.818,90.444 162.818 C 86.212 162.818,79.646 162.138,78.712 161.603 C 78.545 161.508,78.483 161.513,78.574 161.615 C 78.665 161.717,78.635 162.235,78.509 162.766 C 76.085 172.945,76.890 186.662,80.547 197.521 C 95.417 241.663,148.892 257.664,185.649 228.970 C 195.931 220.943,204.377 208.699,208.062 196.477 C 208.300 195.688,208.602 194.690,208.734 194.260 C 209.802 190.773,211.414 180.538,210.967 180.090 C 210.892 180.016,210.331 180.121,209.721 180.323 C 207.473 181.069,199.904 180.830,197.130 179.926 C 188.979 177.270,182.661 170.737,179.949 162.161 C 177.927 155.765,178.089 145.310,180.292 139.987 C 182.244 135.275,184.135 132.412,187.335 129.327 L 189.631 127.113 188.814 126.339 C 184.720 122.460,176.453 117.213,170.646 114.809 C 169.569 114.363,168.425 113.867,168.102 113.707 C 167.429 113.372,167.007 113.622,167.467 114.081 C 167.901 114.515,167.851 116.142,167.374 117.098 C 165.988 119.877,162.674 120.577,160.542 118.542 C 157.144 115.296,152.108 112.850,147.470 112.194 C 146.511 112.058,145.418 111.875,145.040 111.787 C 144.663 111.699,144.296 111.726,144.226 111.848 M195.564 133.619 C 192.058 136.577,189.969 139.379,188.473 143.130 C 186.834 147.239,186.799 158.065,188.419 159.804 C 188.546 159.941,188.650 160.247,188.650 160.485 C 188.650 160.984,190.077 163.787,191.080 165.257 C 194.987 170.980,201.902 173.751,208.722 172.329 C 211.173 171.817,211.034 171.945,210.903 170.327 C 210.212 161.764,206.829 150.865,202.619 143.640 C 202.118 142.779,201.623 141.898,201.520 141.683 C 201.163 140.935,197.974 136.327,197.006 135.160 C 196.470 134.514,195.986 133.854,195.929 133.692 C 195.870 133.526,195.712 133.494,195.564 133.619 M49.315 143.852 C 49.315 143.897,49.697 144.279,50.163 144.700 L 51.011 145.466 50.245 144.618 C 49.530 143.828,49.315 143.650,49.315 143.852 M51.924 146.722 C 51.924 146.767,52.306 147.149,52.772 147.570 L 53.620 148.337 52.854 147.489 C 52.140 146.698,51.924 146.521,51.924 146.722 " stroke="none" fill="#a3f3d3" fill-rule="evenodd"></path><path id="path4" d="M118.559 123.940 C 118.559 125.590,118.602 126.265,118.653 125.440 C 118.705 124.615,118.705 123.265,118.653 122.440 C 118.602 121.614,118.559 122.290,118.559 123.940 M357.322 125.049 L 356.556 125.897 357.404 125.131 C 358.194 124.416,358.372 124.201,358.170 124.201 C 358.125 124.201,357.744 124.583,357.322 125.049 M290.975 126.431 C 290.797 126.822,290.690 128.194,290.717 129.758 L 290.762 132.420 290.931 129.550 C 291.024 127.971,291.192 126.474,291.305 126.223 C 291.418 125.972,291.458 125.766,291.394 125.766 C 291.330 125.766,291.141 126.066,290.975 126.431 M223.180 129.419 C 223.180 130.496,223.226 130.936,223.282 130.398 C 223.338 129.860,223.338 128.979,223.282 128.441 C 223.226 127.903,223.180 128.343,223.180 129.419 M356.119 129.681 C 356.072 130.829,356.122 131.769,356.230 131.768 C 356.337 131.768,356.425 130.828,356.425 129.680 C 356.425 126.984,356.229 126.984,356.119 129.681 M319.896 130.072 C 318.826 131.148,318.010 132.029,318.082 132.029 C 318.154 132.029,319.087 131.148,320.157 130.072 C 321.226 128.995,322.042 128.115,321.970 128.115 C 321.898 128.115,320.965 128.995,319.896 130.072 M252.960 130.267 L 251.402 131.898 253.033 130.341 C 253.930 129.484,254.664 128.750,254.664 128.710 C 254.664 128.517,254.407 128.753,252.960 130.267 M185.505 131.442 L 184.605 132.420 185.584 131.521 C 186.495 130.684,186.682 130.463,186.483 130.463 C 186.439 130.463,185.999 130.903,185.505 131.442 M317.286 133.072 C 316.980 133.503,316.788 133.855,316.859 133.855 C 316.931 133.855,317.241 133.503,317.547 133.072 C 317.854 132.642,318.046 132.290,317.974 132.290 C 317.902 132.290,317.593 132.642,317.286 133.072 M217.482 135.682 C 218.334 136.543,219.090 137.247,219.162 137.247 C 219.234 137.247,218.595 136.543,217.743 135.682 C 216.891 134.821,216.135 134.116,216.063 134.116 C 215.992 134.116,216.630 134.821,217.482 135.682 M350.424 135.551 C 351.204 136.341,351.900 136.986,351.972 136.986 C 352.043 136.986,351.464 136.341,350.685 135.551 C 349.905 134.762,349.209 134.116,349.137 134.116 C 349.065 134.116,349.645 134.762,350.424 135.551 M285.062 135.943 C 285.914 136.804,286.670 137.508,286.742 137.508 C 286.813 137.508,286.175 136.804,285.323 135.943 C 284.471 135.082,283.715 134.377,283.643 134.377 C 283.571 134.377,284.210 135.082,285.062 135.943 M248.271 136.464 C 248.049 136.895,247.925 137.247,247.997 137.247 C 248.069 137.247,248.310 136.895,248.532 136.464 C 248.755 136.034,248.878 135.682,248.807 135.682 C 248.735 135.682,248.494 136.034,248.271 136.464 M247.401 138.172 C 246.963 139.131,247.047 139.336,247.519 138.464 C 247.740 138.056,247.872 137.674,247.812 137.614 C 247.753 137.555,247.567 137.806,247.401 138.172 M287.279 138.487 C 287.620 138.953,287.941 139.335,287.990 139.335 C 288.189 139.335,287.542 138.356,287.114 138.009 C 286.832 137.780,286.895 137.962,287.279 138.487 M180.603 139.737 C 180.166 140.697,180.250 140.901,180.722 140.029 C 180.943 139.622,181.075 139.240,181.015 139.180 C 180.956 139.120,180.770 139.371,180.603 139.737 M288.864 141.031 C 288.864 141.174,289.032 141.585,289.237 141.944 C 289.442 142.303,289.610 142.479,289.610 142.335 C 289.610 142.192,289.442 141.781,289.237 141.422 C 289.032 141.063,288.864 140.887,288.864 141.031 M245.823 142.491 C 245.663 142.951,245.540 143.573,245.549 143.875 C 245.559 144.176,245.725 143.836,245.918 143.118 C 246.317 141.631,246.258 141.242,245.823 142.491 M222.058 142.762 C 222.052 142.853,222.220 143.323,222.429 143.806 C 222.639 144.289,222.811 144.508,222.812 144.292 C 222.813 143.916,222.076 142.422,222.058 142.762 M289.790 143.379 C 289.883 143.810,290.063 144.338,290.189 144.553 C 290.336 144.804,290.357 144.663,290.249 144.162 C 290.156 143.731,289.976 143.203,289.850 142.988 C 289.704 142.737,289.682 142.878,289.790 143.379 M312.625 143.249 C 312.602 143.607,312.522 144.194,312.448 144.553 L 312.314 145.205 312.594 144.563 C 312.749 144.210,312.828 143.623,312.771 143.259 L 312.668 142.596 312.625 143.249 M355.686 144.423 C 355.682 144.978,356.355 147.213,356.393 146.771 C 356.405 146.628,356.252 145.923,356.052 145.205 C 355.853 144.488,355.688 144.136,355.686 144.423 M245.081 146.641 C 245.081 147.286,245.132 147.551,245.194 147.228 C 245.256 146.905,245.256 146.376,245.194 146.053 C 245.132 145.731,245.081 145.995,245.081 146.641 M290.853 147.554 C 290.933 148.415,291.042 149.168,291.096 149.228 C 291.271 149.422,291.138 147.576,290.919 146.771 C 290.780 146.256,290.757 146.524,290.853 147.554 M223.419 148.076 C 223.422 148.650,223.475 148.854,223.537 148.529 C 223.600 148.205,223.597 147.735,223.532 147.486 C 223.467 147.236,223.416 147.502,223.419 148.076 M178.806 148.467 C 178.806 149.113,178.856 149.377,178.919 149.054 C 178.981 148.731,178.981 148.203,178.919 147.880 C 178.856 147.557,178.806 147.821,178.806 148.467 M356.506 148.858 C 356.508 149.720,356.556 150.040,356.614 149.571 C 356.672 149.102,356.671 148.398,356.612 148.006 C 356.552 147.614,356.505 147.997,356.506 148.858 M244.815 148.858 C 244.818 149.432,244.871 149.637,244.933 149.312 C 244.996 148.987,244.993 148.518,244.928 148.268 C 244.863 148.019,244.812 148.284,244.815 148.858 M311.907 151.598 C 311.907 153.392,311.949 154.126,312.000 153.229 C 312.051 152.332,312.051 150.864,312.000 149.967 C 311.949 149.070,311.907 149.804,311.907 151.598 M223.680 151.729 C 223.683 152.303,223.736 152.507,223.798 152.182 C 223.861 151.858,223.858 151.388,223.793 151.139 C 223.728 150.889,223.677 151.155,223.680 151.729 M356.500 154.338 C 356.502 155.055,356.553 155.318,356.613 154.921 C 356.673 154.525,356.671 153.938,356.609 153.617 C 356.547 153.296,356.498 153.620,356.500 154.338 M244.809 154.729 C 244.809 155.232,244.863 155.437,244.929 155.186 C 244.994 154.935,244.994 154.524,244.929 154.273 C 244.863 154.022,244.809 154.227,244.809 154.729 M178.795 154.990 C 178.795 155.492,178.849 155.698,178.914 155.447 C 178.980 155.196,178.980 154.785,178.914 154.534 C 178.849 154.282,178.795 154.488,178.795 154.990 M223.318 155.643 C 223.228 156.360,223.081 157.182,222.989 157.469 C 222.898 157.756,223.007 157.595,223.232 157.111 C 223.457 156.627,223.605 155.805,223.561 155.284 C 223.486 154.405,223.469 154.430,223.318 155.643 M290.824 155.795 C 290.726 156.534,290.698 157.191,290.763 157.255 C 290.827 157.319,290.962 156.770,291.063 156.034 C 291.164 155.298,291.192 154.641,291.125 154.573 C 291.057 154.506,290.922 155.056,290.824 155.795 M245.084 156.947 C 245.086 157.665,245.137 157.927,245.197 157.531 C 245.257 157.134,245.255 156.547,245.193 156.226 C 245.132 155.905,245.082 156.230,245.084 156.947 M179.056 157.339 C 179.056 157.841,179.110 158.046,179.175 157.795 C 179.241 157.544,179.241 157.133,179.175 156.882 C 179.110 156.631,179.056 156.836,179.056 157.339 M312.128 157.339 C 312.128 157.841,312.182 158.046,312.248 157.795 C 312.313 157.544,312.313 157.133,312.248 156.882 C 312.182 156.631,312.128 156.836,312.128 157.339 M356.053 157.227 C 355.957 157.609,355.928 157.972,355.990 158.034 C 356.051 158.095,356.180 157.833,356.276 157.450 C 356.372 157.068,356.400 156.705,356.339 156.643 C 356.277 156.582,356.149 156.844,356.053 157.227 M290.038 159.314 C 289.942 159.697,289.914 160.060,289.976 160.121 C 290.037 160.183,290.166 159.920,290.262 159.538 C 290.358 159.155,290.386 158.792,290.325 158.731 C 290.263 158.669,290.134 158.932,290.038 159.314 M312.608 159.709 C 312.618 160.055,312.733 160.574,312.863 160.861 C 313.028 161.225,313.051 161.067,312.940 160.339 C 312.756 159.128,312.582 158.797,312.608 159.709 M160.008 160.470 C 160.008 160.972,160.062 161.177,160.128 160.926 C 160.193 160.675,160.193 160.264,160.128 160.013 C 160.062 159.762,160.008 159.967,160.008 160.470 M246.334 162.557 C 246.333 162.933,247.069 164.427,247.088 164.087 C 247.093 163.996,246.926 163.527,246.716 163.044 C 246.506 162.561,246.334 162.342,246.334 162.557 M220.613 163.601 C 220.391 164.031,220.267 164.384,220.339 164.384 C 220.411 164.384,220.651 164.031,220.874 163.601 C 221.097 163.170,221.220 162.818,221.148 162.818 C 221.077 162.818,220.836 163.170,220.613 163.601 M284.932 167.645 C 283.862 168.721,283.046 169.602,283.118 169.602 C 283.190 169.602,284.123 168.721,285.192 167.645 C 286.262 166.569,287.078 165.688,287.006 165.688 C 286.934 165.688,286.001 166.569,284.932 167.645 M218.509 166.797 L 217.743 167.645 218.591 166.879 C 219.057 166.457,219.439 166.076,219.439 166.031 C 219.439 165.829,219.224 166.007,218.509 166.797 M116.183 167.254 C 116.183 167.900,116.234 168.164,116.296 167.841 C 116.359 167.518,116.359 166.990,116.296 166.667 C 116.234 166.344,116.183 166.608,116.183 167.254 M350.416 167.971 L 348.728 169.733 350.489 168.044 C 351.458 167.115,352.250 166.323,352.250 166.283 C 352.250 166.091,351.985 166.335,350.416 167.971 M315.843 168.020 C 316.061 168.441,316.357 168.859,316.502 168.949 C 316.647 169.038,316.519 168.694,316.217 168.183 C 315.556 167.063,315.287 166.946,315.843 168.020 M216.294 169.015 L 215.395 169.993 216.373 169.094 C 216.911 168.600,217.352 168.159,217.352 168.116 C 217.352 167.917,217.131 168.104,216.294 169.015 M117.939 171.037 C 118.426 171.539,118.883 171.950,118.954 171.950 C 119.026 171.950,118.686 171.539,118.200 171.037 C 117.713 170.535,117.256 170.124,117.184 170.124 C 117.112 170.124,117.452 170.535,117.939 171.037 M213.112 171.056 C 212.136 171.585,212.195 171.806,213.177 171.298 C 213.607 171.075,213.960 170.838,213.960 170.770 C 213.960 170.602,213.932 170.611,213.112 171.056 M290.778 174.821 C 290.778 177.189,290.818 178.157,290.866 176.973 C 290.914 175.789,290.914 173.852,290.866 172.668 C 290.818 171.484,290.778 172.453,290.778 174.821 M223.183 173.516 C 223.183 174.736,223.228 175.235,223.283 174.625 C 223.338 174.015,223.338 173.017,223.283 172.407 C 223.228 171.797,223.183 172.296,223.183 173.516 M356.256 173.516 C 356.256 174.736,356.301 175.235,356.355 174.625 C 356.410 174.015,356.410 173.017,356.355 172.407 C 356.301 171.797,356.256 172.296,356.256 173.516 M252.838 173.125 C 253.617 173.914,254.314 174.560,254.385 174.560 C 254.457 174.560,253.878 173.914,253.098 173.125 C 252.319 172.335,251.623 171.689,251.551 171.689 C 251.479 171.689,252.058 172.335,252.838 173.125 M187.073 173.581 C 187.713 174.263,188.271 174.821,188.313 174.821 C 188.509 174.821,188.301 174.586,187.149 173.505 L 185.910 172.342 187.073 173.581 M320.026 173.516 C 320.587 174.090,321.104 174.560,321.176 174.560 C 321.247 174.560,320.848 174.090,320.287 173.516 C 319.726 172.942,319.209 172.472,319.137 172.472 C 319.066 172.472,319.466 172.942,320.026 173.516 M204.247 172.925 C 204.861 172.980,205.800 172.979,206.334 172.923 C 206.869 172.867,206.367 172.822,205.219 172.823 C 204.070 172.824,203.633 172.869,204.247 172.925 M356.433 176.828 C 356.429 177.000,356.689 177.416,357.012 177.754 C 357.335 178.092,357.469 178.187,357.310 177.965 C 357.151 177.742,356.890 177.326,356.731 177.038 C 356.571 176.751,356.438 176.657,356.433 176.828 M290.052 181.115 C 289.835 182.203,290.045 182.414,290.280 181.344 C 290.380 180.893,290.406 180.469,290.340 180.403 C 290.273 180.336,290.144 180.657,290.052 181.115 M287.738 186.215 C 287.200 186.996,286.876 187.564,287.017 187.477 C 287.351 187.270,288.923 184.985,288.805 184.877 C 288.756 184.831,288.275 185.433,287.738 186.215 M251.917 191.804 C 251.564 192.915,252.028 193.993,253.426 195.315 L 254.795 196.608 253.490 195.228 C 252.285 193.954,252.185 193.749,252.185 192.554 C 252.185 191.099,252.162 191.033,251.917 191.804 M271.429 193.526 C 271.680 193.592,272.091 193.592,272.342 193.526 C 272.593 193.461,272.387 193.407,271.885 193.407 C 271.383 193.407,271.177 193.461,271.429 193.526 " stroke="none" fill="#a0561e" fill-rule="evenodd"></path><path id="path5" d="M123.010 111.220 L 122.244 112.068 123.092 111.301 C 123.882 110.587,124.060 110.372,123.858 110.372 C 123.813 110.372,123.432 110.753,123.010 111.220 M159.948 117.759 C 159.948 117.804,160.329 118.186,160.796 118.607 L 161.644 119.374 160.877 118.526 C 160.163 117.735,159.948 117.558,159.948 117.759 M223.362 126.010 C 223.214 126.288,223.104 126.787,223.119 127.119 C 223.140 127.604,223.183 127.564,223.338 126.918 C 223.444 126.475,223.615 125.976,223.718 125.809 C 223.821 125.642,223.844 125.506,223.769 125.506 C 223.694 125.506,223.511 125.733,223.362 126.010 M355.989 129.811 C 355.990 130.815,356.037 131.194,356.094 130.653 C 356.150 130.112,356.149 129.290,356.092 128.827 C 356.034 128.363,355.988 128.806,355.989 129.811 M186.683 130.007 L 185.388 131.376 186.758 130.082 C 188.031 128.878,188.248 128.637,188.053 128.637 C 188.012 128.637,187.395 129.253,186.683 130.007 M203.979 130.654 C 204.589 130.709,205.587 130.709,206.197 130.654 C 206.807 130.599,206.308 130.554,205.088 130.554 C 203.868 130.554,203.369 130.599,203.979 130.654 M270.776 130.654 C 271.386 130.709,272.384 130.709,272.994 130.654 C 273.604 130.599,273.105 130.554,271.885 130.554 C 270.665 130.554,270.166 130.599,270.776 130.654 M337.052 130.654 C 337.661 130.709,338.659 130.709,339.269 130.654 C 339.879 130.599,339.380 130.554,338.160 130.554 C 336.941 130.554,336.442 130.599,337.052 130.654 M122.635 136.546 C 122.635 136.591,123.017 136.973,123.483 137.394 L 124.331 138.160 123.565 137.312 C 122.851 136.522,122.635 136.345,122.635 136.546 M178.795 146.641 C 178.795 147.143,178.849 147.348,178.914 147.097 C 178.980 146.846,178.980 146.435,178.914 146.184 C 178.849 145.933,178.795 146.138,178.795 146.641 M244.815 147.032 C 244.818 147.606,244.871 147.810,244.933 147.486 C 244.996 147.161,244.993 146.691,244.928 146.442 C 244.863 146.192,244.812 146.458,244.815 147.032 M311.878 147.423 C 311.878 148.069,311.929 148.333,311.991 148.010 C 312.053 147.688,312.053 147.159,311.991 146.836 C 311.929 146.513,311.878 146.778,311.878 147.423 M223.424 150.033 C 223.424 150.678,223.475 150.943,223.537 150.620 C 223.599 150.297,223.599 149.768,223.537 149.446 C 223.475 149.123,223.424 149.387,223.424 150.033 M178.569 151.729 C 178.570 153.164,178.613 153.718,178.666 152.959 C 178.719 152.201,178.719 151.027,178.665 150.350 C 178.611 149.673,178.568 150.294,178.569 151.729 M291.029 151.859 C 291.029 153.366,291.072 153.982,291.125 153.229 C 291.178 152.476,291.178 151.243,291.125 150.489 C 291.072 149.736,291.029 150.352,291.029 151.859 M244.582 151.859 C 244.582 153.222,244.626 153.780,244.680 153.098 C 244.733 152.417,244.733 151.301,244.680 150.620 C 244.626 149.938,244.582 150.496,244.582 151.859 M311.640 151.859 C 311.640 153.222,311.684 153.780,311.738 153.098 C 311.792 152.417,311.792 151.301,311.738 150.620 C 311.684 149.938,311.640 150.496,311.640 151.859 M356.506 151.729 C 356.508 152.590,356.556 152.910,356.614 152.442 C 356.672 151.973,356.671 151.268,356.612 150.876 C 356.552 150.484,356.505 150.868,356.506 151.729 M223.434 153.033 C 223.435 153.894,223.484 154.215,223.542 153.746 C 223.600 153.277,223.599 152.573,223.539 152.181 C 223.480 151.789,223.432 152.172,223.434 153.033 M311.878 155.773 C 311.878 156.419,311.929 156.683,311.991 156.360 C 312.053 156.037,312.053 155.509,311.991 155.186 C 311.929 154.863,311.878 155.127,311.878 155.773 M244.815 156.425 C 244.818 156.999,244.871 157.203,244.933 156.879 C 244.996 156.554,244.993 156.085,244.928 155.835 C 244.863 155.586,244.812 155.851,244.815 156.425 M178.795 156.556 C 178.795 157.058,178.849 157.264,178.914 157.012 C 178.980 156.761,178.980 156.350,178.914 156.099 C 178.849 155.848,178.795 156.053,178.795 156.556 M355.991 173.255 C 355.991 174.331,356.037 174.772,356.094 174.234 C 356.150 173.695,356.150 172.815,356.094 172.277 C 356.037 171.738,355.991 172.179,355.991 173.255 M252.316 172.815 C 252.316 172.860,252.697 173.241,253.164 173.663 L 254.012 174.429 253.245 173.581 C 252.531 172.791,252.316 172.613,252.316 172.815 M270.776 172.924 C 271.386 172.979,272.384 172.979,272.994 172.924 C 273.604 172.869,273.105 172.824,271.885 172.824 C 270.665 172.824,270.166 172.869,270.776 172.924 M337.052 172.924 C 337.661 172.979,338.659 172.979,339.269 172.924 C 339.879 172.869,339.380 172.824,338.160 172.824 C 336.941 172.824,336.442 172.869,337.052 172.924 M141.101 180.750 C 141.570 180.808,142.274 180.807,142.666 180.747 C 143.058 180.688,142.674 180.640,141.813 180.642 C 140.952 180.643,140.632 180.692,141.101 180.750 M202.942 180.752 C 203.556 180.807,204.495 180.807,205.030 180.751 C 205.564 180.695,205.062 180.649,203.914 180.650 C 202.766 180.651,202.329 180.697,202.942 180.752 M285.828 188.454 L 285.062 189.302 285.910 188.536 C 286.376 188.114,286.758 187.733,286.758 187.688 C 286.758 187.486,286.543 187.664,285.828 188.454 " stroke="none" fill="#bda459" fill-rule="evenodd"></path><path id="path6" d="M144.292 15.398 C 144.017 15.579,144.172 15.605,144.814 15.487 C 145.939 15.281,146.152 15.132,145.314 15.138 C 144.967 15.140,144.508 15.257,144.292 15.398 M160.600 16.177 C 160.887 16.301,161.298 16.402,161.513 16.402 C 161.760 16.402,161.712 16.319,161.383 16.177 C 161.096 16.054,160.685 15.953,160.470 15.953 C 160.223 15.953,160.271 16.036,160.600 16.177 M163.079 16.787 C 163.079 16.854,163.458 17.041,163.921 17.203 C 164.384 17.364,164.648 17.389,164.508 17.258 C 164.211 16.979,163.079 16.606,163.079 16.787 M180.039 27.528 C 180.526 28.030,180.983 28.441,181.055 28.441 C 181.127 28.441,180.787 28.030,180.300 27.528 C 179.813 27.025,179.356 26.614,179.284 26.614 C 179.213 26.614,179.552 27.025,180.039 27.528 M189.991 45.401 C 189.991 45.616,190.092 46.027,190.215 46.314 C 190.357 46.643,190.440 46.692,190.440 46.445 C 190.440 46.230,190.339 45.819,190.215 45.532 C 190.074 45.203,189.991 45.154,189.991 45.401 M110.795 48.673 C 110.706 48.906,110.646 49.410,110.663 49.793 C 110.685 50.314,110.744 50.227,110.896 49.446 C 111.112 48.336,111.065 47.971,110.795 48.673 M190.930 50.780 C 191.006 51.481,191.111 52.104,191.163 52.164 C 191.371 52.400,191.236 50.205,191.022 49.867 C 190.882 49.646,190.847 50.001,190.930 50.780 M191.345 55.447 C 191.346 56.451,191.393 56.830,191.449 56.289 C 191.506 55.748,191.505 54.926,191.447 54.463 C 191.390 53.999,191.343 54.442,191.345 55.447 M87.218 55.504 C 87.615 55.564,88.202 55.562,88.523 55.500 C 88.844 55.438,88.519 55.389,87.802 55.391 C 87.084 55.393,86.822 55.444,87.218 55.504 M92.172 55.503 C 92.567 55.563,93.213 55.563,93.607 55.503 C 94.002 55.443,93.679 55.395,92.890 55.395 C 92.100 55.395,91.778 55.443,92.172 55.503 M82.322 55.838 C 81.435 55.997,81.396 56.028,82.061 56.047 C 82.492 56.059,83.314 55.972,83.888 55.853 C 85.253 55.571,83.889 55.558,82.322 55.838 M96.934 55.818 C 98.614 56.167,100.705 56.379,99.890 56.118 C 99.506 55.995,98.449 55.828,97.541 55.748 C 96.289 55.637,96.142 55.654,96.934 55.818 M77.234 56.894 C 76.948 57.087,77.054 57.111,77.626 56.984 C 78.585 56.769,78.793 56.620,78.126 56.625 C 77.851 56.627,77.449 56.748,77.234 56.894 M102.305 56.715 C 102.365 56.766,102.766 56.887,103.196 56.984 C 103.768 57.111,103.874 57.087,103.588 56.894 C 103.235 56.655,102.043 56.489,102.305 56.715 M108.023 58.403 C 108.239 58.536,108.708 58.724,109.067 58.820 C 109.521 58.941,109.600 58.921,109.328 58.752 C 109.113 58.619,108.643 58.432,108.284 58.336 C 107.831 58.215,107.751 58.235,108.023 58.403 M191.042 59.535 C 191.018 60.062,190.930 60.707,190.848 60.970 C 190.706 61.420,190.715 61.421,190.994 60.987 C 191.157 60.733,191.244 60.088,191.188 59.552 L 191.086 58.578 191.042 59.535 M59.682 64.850 C 59.147 65.214,58.708 65.567,58.708 65.636 C 58.708 65.705,59.178 65.450,59.752 65.070 C 60.664 64.467,60.972 64.188,60.726 64.188 C 60.687 64.188,60.218 64.486,59.682 64.850 M54.960 68.515 C 54.549 68.876,54.264 69.224,54.327 69.287 C 54.390 69.349,54.777 69.050,55.189 68.621 C 56.097 67.673,55.979 67.618,54.960 68.515 M52.178 71.168 L 50.489 72.929 52.250 71.240 C 53.219 70.312,54.012 69.519,54.012 69.479 C 54.012 69.287,53.746 69.532,52.178 71.168 M188.433 70.176 C 188.280 70.614,188.211 70.972,188.278 70.972 C 188.454 70.972,188.947 69.617,188.818 69.487 C 188.758 69.428,188.585 69.738,188.433 70.176 M49.555 74.038 C 48.016 75.762,47.667 76.190,47.803 76.190 C 47.882 76.190,48.499 75.545,49.173 74.755 C 50.422 73.294,50.721 72.732,49.555 74.038 M44.538 80.822 C 43.603 82.325,43.535 82.453,43.667 82.453 C 43.735 82.453,44.152 81.866,44.594 81.148 C 45.035 80.431,45.340 79.843,45.272 79.843 C 45.203 79.843,44.873 80.284,44.538 80.822 M38.647 93.959 C 38.487 94.418,38.364 94.923,38.375 95.081 C 38.385 95.239,38.561 94.909,38.767 94.348 C 38.973 93.786,39.095 93.281,39.040 93.225 C 38.984 93.170,38.807 93.500,38.647 93.959 M142.367 95.695 C 142.597 96.651,142.832 96.862,142.670 95.965 C 142.599 95.575,142.671 95.203,142.830 95.137 C 142.988 95.072,142.910 95.009,142.656 94.998 C 142.283 94.981,142.228 95.114,142.367 95.695 M156.034 95.499 C 155.131 95.689,155.130 95.692,155.903 95.722 C 156.334 95.738,156.862 95.638,157.078 95.499 C 157.512 95.218,157.368 95.218,156.034 95.499 M149.315 95.953 C 150.140 96.005,151.491 96.005,152.316 95.953 C 153.141 95.901,152.466 95.859,150.815 95.859 C 149.165 95.859,148.490 95.901,149.315 95.953 M37.736 97.466 C 37.647 97.699,37.585 98.145,37.600 98.456 C 37.617 98.813,37.706 98.686,37.841 98.110 C 38.069 97.140,38.007 96.760,37.736 97.466 M143.305 99.935 C 143.308 100.294,143.400 100.939,143.509 101.370 L 143.709 102.153 143.714 101.370 C 143.716 100.939,143.624 100.294,143.509 99.935 L 143.301 99.282 143.305 99.935 M36.955 101.785 C 36.865 102.238,36.805 103.035,36.824 103.555 C 36.846 104.195,36.927 103.955,37.075 102.817 C 37.305 101.032,37.232 100.400,36.955 101.785 M36.636 109.198 C 36.636 111.637,36.675 112.670,36.724 111.494 C 36.772 110.317,36.772 108.321,36.724 107.058 C 36.676 105.795,36.637 106.758,36.636 109.198 M168.167 113.682 C 168.311 113.813,169.132 114.198,169.993 114.536 C 171.670 115.195,176.123 117.395,178.474 118.725 C 179.303 119.194,179.634 119.309,179.256 118.998 C 178.004 117.964,167.166 112.769,168.167 113.682 M36.817 115.090 C 36.831 115.724,36.937 116.536,37.053 116.895 C 37.179 117.286,37.206 116.869,37.121 115.851 C 36.954 113.869,36.779 113.430,36.817 115.090 M37.618 119.896 C 37.614 120.183,37.711 120.652,37.834 120.939 C 38.120 121.604,38.120 120.918,37.834 120.026 C 37.666 119.502,37.624 119.476,37.618 119.896 M180.153 119.738 C 180.250 119.895,180.572 120.153,180.868 120.312 C 181.254 120.518,181.357 120.519,181.230 120.314 C 181.133 120.157,180.811 119.899,180.515 119.741 C 180.129 119.534,180.026 119.533,180.153 119.738 M181.605 120.633 C 181.605 120.696,182.573 121.454,183.757 122.317 C 184.941 123.180,186.760 124.603,187.800 125.479 C 189.980 127.317,190.596 127.626,188.672 125.917 C 186.666 124.135,181.605 120.351,181.605 120.633 M206.675 122.729 C 206.735 122.781,207.136 122.902,207.567 122.998 C 208.139 123.126,208.244 123.102,207.958 122.908 C 207.606 122.670,206.414 122.503,206.675 122.729 M273.472 122.729 C 273.532 122.781,273.933 122.902,274.364 122.998 C 274.936 123.126,275.041 123.102,274.755 122.908 C 274.403 122.670,273.211 122.503,273.472 122.729 M339.748 122.729 C 339.808 122.781,340.209 122.902,340.639 122.998 C 341.211 123.126,341.316 123.102,341.031 122.908 C 340.678 122.670,339.486 122.503,339.748 122.729 M38.393 123.157 C 38.393 123.372,38.494 123.783,38.617 124.070 C 38.758 124.399,38.841 124.448,38.841 124.201 C 38.841 123.986,38.740 123.575,38.617 123.288 C 38.476 122.959,38.393 122.911,38.393 123.157 M226.680 123.602 C 227.003 123.664,227.531 123.664,227.854 123.602 C 228.177 123.540,227.913 123.489,227.267 123.489 C 226.621 123.489,226.357 123.540,226.680 123.602 M294.524 123.603 C 294.848 123.665,295.318 123.663,295.567 123.597 C 295.817 123.532,295.551 123.481,294.977 123.484 C 294.403 123.487,294.199 123.540,294.524 123.603 M359.752 123.602 C 360.075 123.664,360.603 123.664,360.926 123.602 C 361.249 123.540,360.985 123.489,360.339 123.489 C 359.693 123.489,359.429 123.540,359.752 123.602 M39.289 126.288 C 39.384 126.647,39.572 127.117,39.705 127.332 C 39.873 127.604,39.893 127.524,39.772 127.071 C 39.676 126.712,39.489 126.243,39.356 126.027 C 39.188 125.755,39.167 125.835,39.289 126.288 M299.408 151.859 C 299.408 165.421,299.439 170.969,299.478 164.188 C 299.517 157.407,299.517 146.311,299.478 139.530 C 299.439 132.750,299.408 138.297,299.408 151.859 M231.828 151.729 C 231.828 165.075,231.859 170.497,231.898 163.777 C 231.937 157.057,231.937 146.137,231.898 139.511 C 231.859 132.884,231.828 138.382,231.828 151.729 M364.900 151.598 C 364.900 164.729,364.932 170.101,364.971 163.536 C 365.009 156.970,365.009 146.226,364.971 139.661 C 364.932 133.095,364.900 138.467,364.900 151.598 M201.957 130.985 C 201.420 131.157,201.397 131.198,201.826 131.216 C 202.114 131.228,202.524 131.124,202.740 130.985 C 203.197 130.690,202.879 130.690,201.957 130.985 M335.029 130.985 C 334.492 131.157,334.469 131.198,334.899 131.216 C 335.186 131.228,335.597 131.124,335.812 130.985 C 336.269 130.690,335.952 130.690,335.029 130.985 M195.965 133.673 C 195.960 133.789,196.581 134.669,197.346 135.630 C 198.111 136.591,199.294 138.229,199.975 139.269 C 200.657 140.310,201.275 141.161,201.350 141.161 C 201.533 141.161,200.737 139.918,198.844 137.247 C 197.009 134.658,195.978 133.379,195.965 133.673 M258.578 136.334 C 257.944 136.980,257.484 137.508,257.556 137.508 C 257.628 137.508,258.205 136.980,258.839 136.334 C 259.473 135.688,259.933 135.160,259.861 135.160 C 259.789 135.160,259.212 135.688,258.578 136.334 M44.324 137.117 C 44.465 137.404,44.771 137.873,45.005 138.160 L 45.430 138.682 45.174 138.160 C 45.033 137.873,44.726 137.404,44.493 137.117 L 44.068 136.595 44.324 137.117 M46.731 140.735 C 47.219 141.434,48.007 142.432,48.482 142.953 C 48.956 143.474,48.730 143.079,47.979 142.074 C 46.323 139.857,45.502 138.977,46.731 140.735 M202.218 142.824 C 202.218 143.015,203.569 145.336,203.680 145.336 C 203.742 145.336,203.495 144.749,203.131 144.031 C 202.564 142.913,202.218 142.455,202.218 142.824 M49.576 144.374 C 49.576 144.419,49.958 144.800,50.424 145.222 L 51.272 145.988 50.506 145.140 C 49.791 144.350,49.576 144.172,49.576 144.374 M52.185 147.293 C 52.672 147.795,53.118 148.206,53.175 148.206 C 53.394 148.206,51.782 146.416,51.547 146.398 C 51.411 146.388,51.698 146.791,52.185 147.293 M204.846 147.815 C 204.846 147.958,205.013 148.369,205.219 148.728 C 205.424 149.087,205.591 149.263,205.591 149.119 C 205.591 148.976,205.424 148.565,205.219 148.206 C 205.013 147.847,204.846 147.671,204.846 147.815 M54.273 149.119 C 54.759 149.622,55.217 150.033,55.288 150.033 C 55.360 150.033,55.020 149.622,54.534 149.119 C 54.047 148.617,53.590 148.206,53.518 148.206 C 53.446 148.206,53.786 148.617,54.273 149.119 M205.628 149.641 C 205.628 149.785,205.796 150.196,206.001 150.554 C 206.206 150.913,206.374 151.089,206.374 150.946 C 206.374 150.802,206.206 150.391,206.001 150.033 C 205.796 149.674,205.628 149.498,205.628 149.641 M55.585 150.228 C 55.590 150.336,55.913 150.649,56.303 150.925 L 57.012 151.426 56.380 150.729 C 55.715 149.997,55.572 149.907,55.585 150.228 M319.967 151.598 C 319.967 152.244,320.018 152.508,320.080 152.185 C 320.142 151.862,320.142 151.334,320.080 151.011 C 320.018 150.688,319.967 150.952,319.967 151.598 M206.546 151.859 C 206.641 152.218,206.875 152.864,207.066 153.294 L 207.415 154.077 207.259 153.294 C 207.173 152.864,206.939 152.218,206.738 151.859 L 206.374 151.207 206.546 151.859 M207.586 154.729 C 207.682 155.088,207.869 155.558,208.002 155.773 C 208.170 156.045,208.191 155.965,208.070 155.512 C 207.974 155.153,207.786 154.684,207.653 154.468 C 207.485 154.196,207.465 154.276,207.586 154.729 M208.385 157.208 C 208.659 158.449,209.033 159.195,208.843 158.121 C 208.754 157.619,208.576 157.032,208.447 156.817 C 208.293 156.561,208.272 156.696,208.385 157.208 M68.102 158.252 C 68.461 158.457,68.871 158.625,69.015 158.625 C 69.159 158.625,68.982 158.457,68.624 158.252 C 68.265 158.047,67.854 157.879,67.710 157.879 C 67.567 157.879,67.743 158.047,68.102 158.252 M69.928 159.035 C 70.287 159.240,70.698 159.407,70.841 159.407 C 70.985 159.407,70.809 159.240,70.450 159.035 C 70.091 158.829,69.680 158.662,69.537 158.662 C 69.393 158.662,69.569 158.829,69.928 159.035 M209.181 160.043 C 209.264 160.597,209.490 161.595,209.682 162.261 L 210.033 163.470 209.877 162.309 C 209.791 161.670,209.566 160.672,209.375 160.091 L 209.030 159.035 209.181 160.043 M71.494 159.576 C 71.494 159.753,72.849 160.245,72.978 160.116 C 73.038 160.057,72.728 159.883,72.290 159.731 C 71.852 159.578,71.494 159.509,71.494 159.576 M74.234 160.610 C 74.664 160.807,75.192 160.964,75.408 160.960 C 75.623 160.955,75.388 160.794,74.886 160.600 C 73.695 160.141,73.226 160.148,74.234 160.610 M77.718 161.564 C 78.271 161.847,78.318 162.007,78.197 163.196 L 78.062 164.514 78.393 163.209 C 78.756 161.776,78.711 161.647,77.756 161.411 L 77.104 161.250 77.718 161.564 M210.080 164.253 C 210.075 164.540,210.233 165.538,210.431 166.471 L 210.793 168.167 210.644 166.614 C 210.481 164.925,210.099 163.322,210.080 164.253 M77.667 165.741 C 77.405 167.231,77.159 169.999,77.301 169.863 C 77.484 169.687,78.074 165.136,77.932 164.994 C 77.869 164.932,77.751 165.268,77.667 165.741 M257.795 166.112 C 257.795 166.250,258.353 166.886,259.035 167.526 L 260.274 168.689 259.100 167.389 C 258.454 166.674,257.896 166.038,257.860 165.976 C 257.825 165.913,257.795 165.975,257.795 166.112 M326.147 167.841 C 327.228 168.993,327.462 169.200,327.462 169.004 C 327.462 168.962,326.905 168.404,326.223 167.765 L 324.984 166.601 326.147 167.841 M210.832 170.015 C 210.835 170.577,210.939 171.200,211.065 171.399 C 211.205 171.619,211.241 171.265,211.157 170.485 C 210.986 168.896,210.827 168.666,210.832 170.015 M77.061 172.994 C 77.061 174.070,77.107 174.511,77.163 173.973 C 77.220 173.434,77.220 172.554,77.163 172.016 C 77.107 171.477,77.061 171.918,77.061 172.994 M353.287 174.234 L 351.598 175.995 353.359 174.306 C 354.328 173.378,355.121 172.585,355.121 172.545 C 355.121 172.353,354.855 172.598,353.287 174.234 M220.213 174.234 L 218.787 175.734 220.287 174.308 C 221.681 172.983,221.907 172.733,221.713 172.733 C 221.672 172.733,220.997 173.408,220.213 174.234 M287.541 173.907 C 286.907 174.553,286.447 175.082,286.519 175.082 C 286.591 175.082,287.168 174.553,287.802 173.907 C 288.435 173.262,288.895 172.733,288.824 172.733 C 288.752 172.733,288.175 173.262,287.541 173.907 M76.791 176.386 C 76.791 177.175,76.839 177.498,76.899 177.104 C 76.959 176.709,76.959 176.063,76.899 175.669 C 76.839 175.274,76.791 175.597,76.791 176.386 M363.323 178.539 L 362.557 179.387 363.405 178.620 C 364.196 177.906,364.373 177.691,364.171 177.691 C 364.127 177.691,363.745 178.072,363.323 178.539 M77.061 179.778 C 77.061 180.855,77.107 181.295,77.163 180.757 C 77.220 180.219,77.220 179.338,77.163 178.800 C 77.107 178.262,77.061 178.702,77.061 179.778 M210.959 181.605 C 210.856 182.626,210.828 183.518,210.896 183.586 C 210.964 183.654,211.103 182.873,211.204 181.849 C 211.304 180.826,211.333 179.934,211.266 179.868 C 211.200 179.802,211.061 180.583,210.959 181.605 M275.669 180.300 C 274.946 180.484,274.936 180.501,275.538 180.526 C 275.897 180.541,276.367 180.439,276.582 180.300 C 277.026 180.013,276.796 180.013,275.669 180.300 M298.821 180.822 C 298.821 181.324,298.875 181.530,298.940 181.279 C 299.006 181.027,299.006 180.616,298.940 180.365 C 298.875 180.114,298.821 180.320,298.821 180.822 M77.389 184.475 C 77.466 185.408,77.631 186.582,77.756 187.084 C 77.925 187.762,77.947 187.560,77.840 186.301 C 77.762 185.369,77.596 184.194,77.473 183.692 C 77.308 183.020,77.286 183.227,77.389 184.475 M210.482 185.572 C 210.149 187.495,209.988 189.033,210.132 188.900 C 210.339 188.708,210.907 184.988,210.753 184.834 C 210.685 184.767,210.563 185.099,210.482 185.572 M78.073 188.780 C 78.070 189.067,78.218 189.889,78.402 190.607 C 78.587 191.324,78.740 191.676,78.744 191.389 C 78.747 191.102,78.599 190.280,78.414 189.563 C 78.230 188.845,78.076 188.493,78.073 188.780 M254.472 189.359 C 254.869 189.419,255.456 189.417,255.777 189.355 C 256.098 189.293,255.773 189.244,255.055 189.246 C 254.338 189.248,254.075 189.299,254.472 189.359 M209.310 191.900 C 209.141 192.743,209.047 193.479,209.103 193.534 C 209.265 193.696,209.844 191.047,209.726 190.690 C 209.666 190.512,209.479 191.057,209.310 191.900 M292.237 193.738 C 291.604 194.384,291.144 194.912,291.216 194.912 C 291.287 194.912,291.865 194.384,292.498 193.738 C 293.132 193.092,293.592 192.564,293.520 192.564 C 293.449 192.564,292.871 193.092,292.237 193.738 M269.798 193.085 C 271.004 193.314,273.101 193.424,272.907 193.248 C 272.847 193.193,271.859 193.084,270.711 193.005 C 269.142 192.897,268.915 192.917,269.798 193.085 M273.646 193.009 C 273.969 193.071,274.498 193.071,274.821 193.009 C 275.144 192.946,274.879 192.896,274.234 192.896 C 273.588 192.896,273.324 192.946,273.646 193.009 M79.224 193.868 C 79.315 194.371,79.492 195.016,79.618 195.303 C 79.774 195.662,79.794 195.539,79.680 194.912 C 79.589 194.410,79.412 193.764,79.286 193.477 C 79.130 193.119,79.110 193.241,79.224 193.868 M208.659 194.305 C 208.351 195.431,208.218 196.217,208.335 196.217 C 208.518 196.217,209.058 194.099,208.912 193.953 C 208.844 193.885,208.730 194.043,208.659 194.305 M80.006 196.608 C 80.099 197.038,80.278 197.567,80.404 197.782 C 80.551 198.033,80.572 197.892,80.464 197.391 C 80.371 196.960,80.192 196.432,80.066 196.217 C 79.919 195.966,79.897 196.107,80.006 196.608 M207.750 197.443 C 207.587 197.974,207.497 198.451,207.549 198.504 C 207.602 198.557,207.786 198.173,207.958 197.652 C 208.130 197.130,208.220 196.653,208.158 196.591 C 208.096 196.529,207.912 196.912,207.750 197.443 M80.787 198.956 C 80.879 199.387,81.070 199.856,81.211 200.000 C 81.380 200.171,81.402 200.037,81.276 199.609 C 80.967 198.555,80.594 198.058,80.787 198.956 M206.438 200.959 C 205.979 202.126,205.652 203.130,205.711 203.189 C 205.771 203.248,206.190 202.337,206.642 201.163 C 207.095 199.989,207.422 198.985,207.369 198.932 C 207.316 198.879,206.897 199.791,206.438 200.959 M279.452 200.391 C 278.915 200.563,278.892 200.604,279.322 200.622 C 279.609 200.634,280.020 200.531,280.235 200.391 C 280.692 200.096,280.375 200.096,279.452 200.391 M81.427 200.451 C 81.398 200.760,82.248 202.771,82.360 202.658 C 82.417 202.601,82.235 202.039,81.955 201.408 C 81.675 200.777,81.438 200.347,81.427 200.451 M82.471 203.131 C 82.471 203.275,82.639 203.686,82.844 204.044 C 83.049 204.403,83.217 204.579,83.217 204.436 C 83.217 204.292,83.049 203.881,82.844 203.523 C 82.639 203.164,82.471 202.988,82.471 203.131 M204.453 205.535 C 203.574 207.389,201.654 210.875,200.712 212.329 C 200.503 212.652,200.393 212.916,200.468 212.916 C 200.904 212.916,205.811 203.897,205.529 203.616 C 205.467 203.554,204.983 204.417,204.453 205.535 M83.410 205.288 C 83.492 205.613,83.663 205.943,83.789 206.021 C 84.146 206.241,84.059 205.764,83.640 205.203 C 83.275 204.715,83.267 204.717,83.410 205.288 M84.193 206.853 C 84.275 207.179,84.445 207.508,84.572 207.586 C 84.929 207.807,84.842 207.330,84.423 206.769 C 84.058 206.280,84.049 206.283,84.193 206.853 M85.570 209.393 C 86.040 210.254,86.546 211.076,86.695 211.220 C 86.845 211.363,86.579 210.776,86.106 209.915 C 85.632 209.054,85.126 208.232,84.980 208.089 C 84.835 207.945,85.101 208.532,85.570 209.393 M87.420 212.524 C 89.110 215.390,94.834 222.570,95.428 222.570 C 95.527 222.570,95.131 222.071,94.548 221.461 C 92.882 219.717,90.993 217.330,89.084 214.558 C 87.140 211.735,86.476 210.923,87.420 212.524 M198.574 215.444 C 197.685 216.691,197.132 217.567,197.345 217.390 C 197.779 217.029,200.488 213.177,200.307 213.177 C 200.244 213.177,199.464 214.197,198.574 215.444 M195.108 219.896 C 194.166 221.008,192.267 223.021,190.887 224.370 C 189.508 225.719,188.423 226.866,188.476 226.919 C 188.611 227.054,195.699 219.750,196.432 218.720 C 197.451 217.289,196.903 217.775,195.108 219.896 M95.499 222.941 C 95.499 223.088,100.701 227.786,102.022 228.832 C 103.886 230.308,103.125 229.471,100.783 227.467 C 99.527 226.393,97.893 224.910,97.151 224.173 C 95.924 222.952,95.499 222.635,95.499 222.941 M185.910 228.739 C 184.762 229.672,182.678 231.201,181.279 232.139 C 179.879 233.077,178.735 233.897,178.735 233.963 C 178.735 234.409,186.927 228.530,187.841 227.428 C 188.401 226.754,188.124 226.942,185.910 228.739 M103.327 229.698 C 103.327 229.834,105.892 231.776,106.458 232.068 C 106.673 232.179,106.556 232.027,106.197 231.731 C 105.135 230.854,103.327 229.574,103.327 229.698 M107.093 232.458 C 107.190 232.615,107.512 232.873,107.809 233.032 C 108.195 233.238,108.297 233.239,108.171 233.035 C 108.074 232.878,107.752 232.619,107.456 232.461 C 107.070 232.254,106.967 232.253,107.093 232.458 M108.545 233.347 C 108.545 233.664,115.789 237.592,115.995 237.387 C 116.044 237.337,115.004 236.743,113.685 236.067 C 112.365 235.391,110.669 234.474,109.915 234.031 C 109.162 233.588,108.545 233.280,108.545 233.347 M177.860 234.247 C 177.793 234.354,176.495 235.078,174.974 235.855 C 173.454 236.632,172.262 237.320,172.326 237.384 C 172.447 237.504,177.900 234.690,178.330 234.285 C 178.485 234.139,178.466 234.051,178.280 234.051 C 178.116 234.051,177.928 234.139,177.860 234.247 M170.907 237.834 C 170.548 238.039,170.372 238.207,170.515 238.207 C 170.659 238.207,171.070 238.039,171.429 237.834 C 171.787 237.629,171.963 237.461,171.820 237.461 C 171.676 237.461,171.265 237.629,170.907 237.834 M117.417 238.095 C 117.776 238.300,118.187 238.468,118.330 238.468 C 118.474 238.468,118.297 238.300,117.939 238.095 C 117.580 237.890,117.169 237.722,117.025 237.722 C 116.882 237.722,117.058 237.890,117.417 238.095 M118.982 238.704 C 119.198 238.837,119.667 239.024,120.026 239.120 C 120.479 239.241,120.559 239.221,120.287 239.053 C 120.072 238.919,119.602 238.732,119.243 238.636 C 118.790 238.515,118.710 238.535,118.982 238.704 M168.428 238.887 C 167.775 239.201,167.754 239.238,168.297 239.105 C 169.037 238.924,169.868 238.501,169.472 238.506 C 169.328 238.508,168.858 238.680,168.428 238.887 M121.070 239.486 C 121.285 239.619,121.755 239.807,122.114 239.903 C 122.567 240.024,122.646 240.003,122.374 239.835 C 122.159 239.702,121.689 239.515,121.331 239.419 C 120.877 239.298,120.798 239.318,121.070 239.486 M166.341 239.670 C 165.688 239.984,165.666 240.020,166.210 239.888 C 166.949 239.707,167.780 239.283,167.384 239.289 C 167.241 239.291,166.771 239.463,166.341 239.670 M163.862 240.370 C 163.359 240.519,163.072 240.687,163.223 240.743 C 163.373 240.798,163.960 240.674,164.527 240.466 C 165.708 240.034,165.228 239.965,163.862 240.370 M124.070 240.574 C 124.357 240.697,124.768 240.798,124.984 240.798 C 125.230 240.798,125.182 240.715,124.853 240.574 C 124.566 240.451,124.155 240.350,123.940 240.350 C 123.693 240.350,123.742 240.433,124.070 240.574 M126.680 241.357 C 126.967 241.480,127.436 241.581,127.723 241.581 L 128.245 241.581 127.723 241.357 C 127.436 241.233,126.967 241.133,126.680 241.133 L 126.158 241.133 126.680 241.357 M160.078 241.492 L 159.035 241.848 160.078 241.696 C 160.652 241.612,161.357 241.450,161.644 241.336 L 162.166 241.129 161.644 241.132 C 161.357 241.134,160.652 241.296,160.078 241.492 M130.103 242.128 C 130.406 242.255,131.228 242.425,131.929 242.507 C 133.508 242.692,132.450 242.300,130.724 242.061 C 129.939 241.952,129.733 241.974,130.103 242.128 M156.425 242.277 L 155.121 242.625 156.425 242.477 C 157.143 242.395,157.965 242.235,158.252 242.120 L 158.774 241.912 158.252 241.920 C 157.965 241.925,157.143 242.085,156.425 242.277 M134.377 242.937 C 134.879 243.060,136.523 243.219,138.030 243.292 L 140.770 243.423 137.508 243.064 C 133.763 242.652,133.093 242.624,134.377 242.937 M152.903 242.839 C 152.544 242.894,151.135 243.046,149.772 243.177 L 147.293 243.416 150.163 243.289 C 152.641 243.181,156.170 242.690,154.207 242.727 C 153.849 242.734,153.262 242.784,152.903 242.839 M143.061 243.636 C 143.747 243.690,144.803 243.690,145.409 243.635 C 146.015 243.580,145.453 243.536,144.162 243.537 C 142.870 243.538,142.375 243.582,143.061 243.636 " stroke="none" fill="#c9eee7" fill-rule="evenodd"></path><path id="path7" d="M222.920 129.289 C 222.921 130.437,222.967 130.874,223.022 130.261 C 223.078 129.647,223.077 128.708,223.021 128.173 C 222.965 127.639,222.920 128.141,222.920 129.289 M290.497 129.028 C 290.498 130.033,290.545 130.412,290.601 129.870 C 290.658 129.329,290.657 128.507,290.599 128.044 C 290.542 127.581,290.495 128.023,290.497 129.028 M246.096 140.520 C 245.929 140.886,245.797 141.327,245.803 141.500 C 245.808 141.672,245.986 141.414,246.198 140.926 C 246.644 139.899,246.550 139.524,246.096 140.520 M245.159 143.919 C 245.063 144.302,245.035 144.665,245.096 144.727 C 245.158 144.788,245.287 144.526,245.383 144.143 C 245.479 143.761,245.507 143.398,245.445 143.336 C 245.384 143.275,245.255 143.537,245.159 143.919 M311.612 148.337 C 311.615 148.911,311.668 149.115,311.731 148.790 C 311.793 148.466,311.791 147.996,311.725 147.746 C 311.660 147.497,311.609 147.763,311.612 148.337 M223.173 149.119 C 223.174 149.980,223.223 150.301,223.281 149.832 C 223.339 149.363,223.338 148.659,223.278 148.267 C 223.219 147.875,223.171 148.258,223.173 149.119 M356.243 149.511 C 356.243 150.300,356.291 150.623,356.351 150.228 C 356.411 149.834,356.411 149.188,356.351 148.793 C 356.291 148.399,356.243 148.721,356.243 149.511 M244.318 151.859 C 244.318 153.079,244.363 153.578,244.418 152.968 C 244.473 152.358,244.473 151.360,244.418 150.750 C 244.363 150.140,244.318 150.639,244.318 151.859 M356.243 153.947 C 356.243 154.736,356.291 155.059,356.351 154.664 C 356.411 154.269,356.411 153.624,356.351 153.229 C 356.291 152.834,356.243 153.157,356.243 153.947 M223.170 154.207 C 223.170 154.997,223.219 155.320,223.279 154.925 C 223.339 154.530,223.339 153.885,223.279 153.490 C 223.219 153.095,223.170 153.418,223.170 154.207 M311.612 155.121 C 311.615 155.695,311.668 155.899,311.731 155.574 C 311.793 155.250,311.791 154.780,311.725 154.531 C 311.660 154.281,311.609 154.547,311.612 155.121 M290.313 157.110 C 290.096 158.198,290.306 158.409,290.541 157.339 C 290.640 156.887,290.667 156.464,290.601 156.398 C 290.534 156.331,290.405 156.652,290.313 157.110 M355.412 158.426 C 355.395 158.666,355.314 159.077,355.231 159.339 C 355.089 159.792,355.097 159.793,355.379 159.353 C 355.543 159.097,355.625 158.686,355.560 158.439 C 355.454 158.035,355.439 158.034,355.412 158.426 M245.046 158.904 C 245.046 159.119,245.147 159.530,245.271 159.817 C 245.412 160.146,245.495 160.195,245.495 159.948 C 245.495 159.733,245.394 159.322,245.271 159.035 C 245.129 158.706,245.046 158.657,245.046 158.904 M352.371 165.232 C 351.969 165.841,351.807 166.203,352.010 166.034 C 352.402 165.711,353.401 164.123,353.213 164.123 C 353.152 164.123,352.774 164.622,352.371 165.232 M284.785 167.580 L 284.018 168.428 284.866 167.662 C 285.657 166.947,285.834 166.732,285.633 166.732 C 285.588 166.732,285.206 167.114,284.785 167.580 M217.205 167.841 L 216.438 168.689 217.286 167.922 C 218.077 167.208,218.254 166.993,218.053 166.993 C 218.008 166.993,217.626 167.374,217.205 167.841 M222.924 173.907 C 222.923 175.199,222.967 175.760,223.022 175.155 C 223.076 174.549,223.077 173.492,223.023 172.806 C 222.969 172.120,222.924 172.616,222.924 173.907 M290.464 175.342 C 290.431 176.993,290.343 178.637,290.270 178.995 L 290.135 179.648 290.411 179.017 C 290.571 178.651,290.653 177.112,290.605 175.364 L 290.523 172.342 290.464 175.342 M289.410 182.268 C 288.972 183.228,289.056 183.432,289.529 182.560 C 289.749 182.153,289.881 181.771,289.821 181.711 C 289.762 181.651,289.576 181.902,289.410 182.268 M287.994 185.325 L 287.533 186.171 288.059 185.555 C 288.506 185.031,288.745 184.471,288.519 184.477 C 288.483 184.477,288.247 184.859,287.994 185.325 M286.089 187.932 L 285.323 188.780 286.171 188.014 C 286.961 187.299,287.139 187.084,286.937 187.084 C 286.892 187.084,286.511 187.466,286.089 187.932 M251.593 192.564 C 251.593 193.066,251.647 193.271,251.713 193.020 C 251.778 192.769,251.778 192.358,251.713 192.107 C 251.647 191.856,251.593 192.061,251.593 192.564 " stroke="none" fill="#f1cf96" fill-rule="evenodd"></path><path id="path8" d="M147.162 15.111 C 146.373 15.195,148.017 15.266,150.815 15.267 C 153.810 15.269,155.259 15.200,154.338 15.100 C 152.458 14.895,149.135 14.900,147.162 15.111 M141.683 15.980 C 141.037 16.128,140.626 16.288,140.770 16.337 C 140.913 16.385,141.676 16.264,142.466 16.069 C 144.127 15.657,143.436 15.579,141.683 15.980 M158.382 15.881 C 159.356 16.202,161.233 16.477,160.600 16.206 C 160.313 16.084,159.550 15.912,158.904 15.825 C 158.131 15.721,157.953 15.740,158.382 15.881 M138.813 16.757 C 138.311 16.906,138.023 17.073,138.174 17.129 C 138.324 17.184,138.911 17.060,139.478 16.853 C 140.659 16.420,140.180 16.351,138.813 16.757 M161.774 16.660 C 161.990 16.787,162.518 16.966,162.948 17.059 C 163.449 17.167,163.590 17.146,163.340 16.999 C 163.125 16.873,162.596 16.694,162.166 16.600 C 161.665 16.492,161.524 16.514,161.774 16.660 M135.853 17.860 C 135.015 18.205,134.251 18.573,134.157 18.679 C 134.063 18.784,134.220 18.777,134.508 18.664 C 134.795 18.551,135.616 18.229,136.334 17.948 C 137.052 17.666,137.688 17.388,137.747 17.329 C 138.008 17.071,137.267 17.279,135.853 17.860 M164.905 17.699 C 165.121 17.832,165.590 18.019,165.949 18.115 C 166.402 18.237,166.482 18.216,166.210 18.048 C 165.995 17.915,165.525 17.728,165.166 17.632 C 164.713 17.510,164.633 17.531,164.905 17.699 M166.843 18.494 C 166.921 18.620,167.251 18.791,167.576 18.873 C 168.146 19.016,168.149 19.008,167.661 18.643 C 167.100 18.224,166.622 18.137,166.843 18.494 M168.319 19.145 C 168.588 19.385,170.124 20.091,170.124 19.974 C 170.124 19.824,168.677 19.048,168.397 19.048 C 168.295 19.048,168.259 19.091,168.319 19.145 M130.920 20.241 C 129.944 20.770,130.004 20.990,130.985 20.483 C 131.416 20.260,131.768 20.022,131.768 19.954 C 131.768 19.786,131.740 19.796,130.920 20.241 M170.528 20.310 C 170.992 20.721,172.733 21.700,172.733 21.551 C 172.733 21.375,170.741 20.091,170.468 20.091 C 170.365 20.091,170.392 20.190,170.528 20.310 M127.659 22.327 C 124.186 24.703,118.929 30.031,117.314 32.811 C 116.804 33.690,117.490 32.942,118.750 31.246 C 121.429 27.640,124.894 24.424,129.421 21.344 C 129.779 21.101,130.007 20.895,129.927 20.888 C 129.847 20.880,128.827 21.528,127.659 22.327 M175.603 23.659 C 179.233 26.743,182.243 30.030,184.340 33.203 C 184.885 34.028,185.387 34.703,185.455 34.703 C 185.608 34.703,185.018 33.772,183.469 31.572 C 181.940 29.400,178.149 25.472,176.055 23.890 C 174.963 23.065,174.814 22.989,175.603 23.659 M185.910 35.747 C 186.133 36.177,186.373 36.530,186.445 36.530 C 186.517 36.530,186.394 36.177,186.171 35.747 C 185.948 35.316,185.707 34.964,185.636 34.964 C 185.564 34.964,185.687 35.316,185.910 35.747 M187.364 38.487 C 187.364 38.630,187.531 39.041,187.736 39.400 C 187.942 39.759,188.109 39.935,188.109 39.791 C 188.109 39.648,187.942 39.237,187.736 38.878 C 187.531 38.519,187.364 38.343,187.364 38.487 M113.680 39.460 C 112.996 41.096,112.961 41.643,113.632 40.207 C 113.995 39.432,114.239 38.744,114.174 38.679 C 114.109 38.614,113.886 38.965,113.680 39.460 M188.277 40.705 C 188.373 41.063,188.561 41.533,188.694 41.748 C 188.862 42.020,188.882 41.941,188.761 41.487 C 188.665 41.129,188.478 40.659,188.345 40.444 C 188.177 40.172,188.156 40.251,188.277 40.705 M112.224 43.470 C 112.074 44.014,111.998 44.506,112.056 44.563 C 112.113 44.620,112.283 44.223,112.433 43.679 C 112.583 43.136,112.659 42.644,112.602 42.586 C 112.544 42.529,112.374 42.927,112.224 43.470 M189.199 43.314 C 189.206 43.529,189.377 44.116,189.581 44.618 L 189.950 45.532 189.792 44.618 C 189.612 43.583,189.178 42.627,189.199 43.314 M111.421 46.423 C 111.248 47.145,111.155 47.880,111.214 48.058 C 111.273 48.235,111.460 47.691,111.629 46.847 C 112.010 44.953,111.851 44.630,111.421 46.423 M190.267 47.489 C 190.267 47.847,190.361 48.434,190.476 48.793 L 190.685 49.446 190.685 48.793 C 190.685 48.434,190.591 47.847,190.476 47.489 L 190.267 46.836 190.267 47.489 M110.539 51.963 C 110.326 54.007,110.354 58.181,110.586 58.760 C 110.683 59.004,110.774 57.213,110.786 54.781 C 110.811 49.906,110.785 49.609,110.539 51.963 M191.098 55.447 C 191.098 57.169,191.140 57.839,191.191 56.937 C 191.243 56.034,191.242 54.625,191.191 53.806 C 191.139 52.986,191.097 53.725,191.098 55.447 M190.346 62.622 C 190.245 63.216,190.222 63.760,190.294 63.832 C 190.366 63.903,190.506 63.477,190.607 62.883 C 190.707 62.290,190.730 61.746,190.658 61.674 C 190.587 61.602,190.446 62.029,190.346 62.622 M189.459 66.432 C 189.308 66.975,189.233 67.467,189.290 67.524 C 189.347 67.582,189.517 67.184,189.667 66.641 C 189.817 66.097,189.893 65.605,189.836 65.548 C 189.778 65.491,189.609 65.888,189.459 66.432 M187.900 70.874 C 187.727 71.252,187.646 71.621,187.719 71.694 C 187.793 71.767,187.976 71.501,188.128 71.102 C 188.486 70.161,188.306 69.981,187.900 70.874 M186.617 73.720 C 186.159 74.648,185.840 75.408,185.909 75.408 C 186.084 75.408,187.661 72.245,187.544 72.128 C 187.492 72.075,187.074 72.792,186.617 73.720 M184.547 77.299 C 184.037 77.959,183.863 78.364,184.172 78.173 C 184.481 77.982,185.099 76.973,184.907 76.973 C 184.848 76.973,184.686 77.120,184.547 77.299 M183.023 79.497 C 182.622 80.024,182.426 80.372,182.589 80.272 C 182.923 80.065,184.053 78.539,183.871 78.539 C 183.807 78.539,183.425 78.970,183.023 79.497 M179.648 83.348 C 178.213 84.832,176.096 86.734,174.944 87.576 C 173.792 88.418,172.560 89.320,172.205 89.580 C 171.727 89.931,171.797 89.918,172.472 89.529 C 174.986 88.082,179.259 84.421,181.351 81.922 C 182.954 80.007,182.556 80.341,179.648 83.348 M168.673 91.442 C 168.185 91.807,168.188 91.815,168.758 91.671 C 169.083 91.589,169.413 91.419,169.491 91.293 C 169.712 90.936,169.234 91.023,168.673 91.442 M166.993 92.237 C 166.634 92.443,166.458 92.610,166.601 92.610 C 166.745 92.610,167.156 92.443,167.515 92.237 C 167.873 92.032,168.050 91.865,167.906 91.865 C 167.763 91.865,167.352 92.032,166.993 92.237 M165.036 93.011 C 164.605 93.208,164.429 93.375,164.644 93.381 C 164.860 93.388,165.329 93.225,165.688 93.020 C 166.519 92.545,166.067 92.539,165.036 93.011 M161.905 94.074 C 160.871 94.431,160.870 94.433,161.774 94.285 C 162.277 94.202,162.864 94.034,163.079 93.911 C 163.653 93.584,163.098 93.661,161.905 94.074 M158.933 94.737 C 158.304 94.861,157.716 95.038,157.629 95.130 C 157.431 95.337,159.623 94.989,160.339 94.699 C 161.006 94.430,160.418 94.446,158.933 94.737 M142.596 94.977 C 142.883 95.101,143.412 95.198,143.770 95.194 L 144.423 95.186 143.770 94.977 C 143.412 94.862,142.883 94.765,142.596 94.761 L 142.074 94.753 142.596 94.977 M148.806 95.693 C 150.069 95.741,152.065 95.741,153.242 95.693 C 154.419 95.645,153.386 95.605,150.946 95.606 C 148.506 95.606,147.543 95.646,148.806 95.693 M144.754 103.516 C 145.223 103.574,145.927 103.573,146.319 103.513 C 146.711 103.454,146.327 103.406,145.466 103.408 C 144.605 103.409,144.285 103.458,144.754 103.516 M148.076 103.849 C 148.506 103.958,149.152 104.048,149.511 104.048 C 150.093 104.048,150.079 104.026,149.380 103.849 C 148.950 103.739,148.304 103.649,147.945 103.649 C 147.363 103.649,147.377 103.671,148.076 103.849 M151.598 104.337 C 151.813 104.466,152.401 104.644,152.903 104.733 C 153.519 104.842,153.646 104.822,153.294 104.672 C 152.487 104.326,151.135 104.059,151.598 104.337 M202.554 122.828 C 203.384 122.880,204.676 122.880,205.424 122.827 C 206.172 122.775,205.492 122.732,203.914 122.733 C 202.335 122.734,201.723 122.777,202.554 122.828 M269.351 122.828 C 270.181 122.880,271.473 122.880,272.221 122.827 C 272.969 122.775,272.290 122.732,270.711 122.733 C 269.132 122.734,268.520 122.777,269.351 122.828 M335.626 122.828 C 336.456 122.880,337.748 122.880,338.496 122.827 C 339.244 122.775,338.565 122.732,336.986 122.733 C 335.408 122.734,334.796 122.777,335.626 122.828 M226.549 123.866 C 226.944 123.926,227.590 123.926,227.984 123.866 C 228.379 123.806,228.056 123.757,227.267 123.757 C 226.477 123.757,226.155 123.806,226.549 123.866 M359.622 123.866 C 360.016 123.926,360.662 123.926,361.057 123.866 C 361.451 123.806,361.129 123.757,360.339 123.757 C 359.550 123.757,359.227 123.806,359.622 123.866 M253.359 129.550 C 252.726 130.196,252.266 130.724,252.338 130.724 C 252.409 130.724,252.987 130.196,253.620 129.550 C 254.254 128.904,254.714 128.376,254.642 128.376 C 254.570 128.376,253.993 128.904,253.359 129.550 M267.189 131.115 C 266.543 131.303,266.249 131.458,266.536 131.461 C 266.823 131.464,267.528 131.312,268.102 131.123 C 269.453 130.677,268.721 130.672,267.189 131.115 M200.130 131.246 C 199.606 131.414,199.580 131.456,200.000 131.463 C 200.287 131.467,200.757 131.369,201.044 131.246 C 201.709 130.960,201.023 130.960,200.130 131.246 M333.203 131.246 C 332.678 131.414,332.653 131.456,333.072 131.463 C 333.359 131.467,333.829 131.369,334.116 131.246 C 334.781 130.960,334.095 130.960,333.203 131.246 M319.706 151.598 C 319.706 152.244,319.757 152.508,319.819 152.185 C 319.881 151.862,319.881 151.334,319.819 151.011 C 319.757 150.688,319.706 150.952,319.706 151.598 M266.014 172.090 C 266.445 172.287,266.973 172.445,267.189 172.441 C 267.404 172.436,267.169 172.274,266.667 172.081 C 265.475 171.622,265.007 171.629,266.014 172.090 M319.374 173.076 C 319.374 173.121,319.755 173.502,320.222 173.924 L 321.070 174.690 320.303 173.842 C 319.589 173.052,319.374 172.874,319.374 173.076 M226.680 179.701 C 227.003 179.764,227.531 179.764,227.854 179.701 C 228.177 179.639,227.913 179.588,227.267 179.588 C 226.621 179.588,226.357 179.639,226.680 179.701 M343.155 179.817 C 342.673 179.955,342.327 180.118,342.387 180.177 C 342.518 180.309,344.423 179.802,344.423 179.635 C 344.423 179.482,344.216 179.511,343.155 179.817 M359.625 179.705 C 360.022 179.764,360.609 179.763,360.930 179.701 C 361.251 179.639,360.926 179.590,360.209 179.592 C 359.491 179.594,359.229 179.645,359.625 179.705 M333.594 180.570 C 334.627 180.790,337.305 180.910,337.095 180.727 C 337.035 180.675,335.988 180.569,334.768 180.491 C 333.220 180.392,332.866 180.416,333.594 180.570 M268.558 180.748 C 268.953 180.808,269.599 180.808,269.993 180.748 C 270.388 180.688,270.065 180.639,269.276 180.639 C 268.487 180.639,268.164 180.688,268.558 180.748 M271.820 180.745 C 272.143 180.807,272.671 180.807,272.994 180.745 C 273.317 180.683,273.053 180.632,272.407 180.632 C 271.761 180.632,271.497 180.683,271.820 180.745 M338.229 180.748 C 338.626 180.808,339.213 180.807,339.534 180.745 C 339.855 180.683,339.530 180.634,338.813 180.636 C 338.095 180.638,337.833 180.688,338.229 180.748 M258.056 190.171 C 258.271 190.304,258.741 190.492,259.100 190.588 C 259.553 190.709,259.633 190.688,259.361 190.520 C 259.145 190.387,258.676 190.200,258.317 190.104 C 257.864 189.983,257.784 190.003,258.056 190.171 M263.405 192.042 C 263.692 192.165,264.103 192.266,264.318 192.266 C 264.565 192.266,264.517 192.183,264.188 192.042 C 263.901 191.918,263.490 191.818,263.275 191.818 C 263.028 191.818,263.076 191.900,263.405 192.042 M266.406 192.807 C 266.621 192.928,267.678 193.093,268.754 193.173 C 270.554 193.307,270.596 193.299,269.276 193.080 C 266.607 192.635,265.999 192.578,266.406 192.807 M275.737 193.009 C 276.061 193.071,276.531 193.069,276.781 193.004 C 277.030 192.938,276.765 192.887,276.190 192.890 C 275.616 192.893,275.412 192.947,275.737 193.009 M273.386 193.270 C 273.708 193.332,274.237 193.332,274.560 193.270 C 274.883 193.207,274.618 193.157,273.973 193.157 C 273.327 193.157,273.063 193.207,273.386 193.270 M261.187 199.597 C 261.402 199.742,261.804 199.863,262.079 199.866 C 262.746 199.871,262.538 199.722,261.579 199.507 C 261.007 199.379,260.901 199.403,261.187 199.597 M281.670 199.609 C 281.341 199.750,281.293 199.833,281.539 199.833 C 281.755 199.833,282.166 199.732,282.453 199.609 C 282.782 199.467,282.830 199.384,282.583 199.384 C 282.368 199.384,281.957 199.485,281.670 199.609 M268.950 201.097 C 269.273 201.160,269.801 201.160,270.124 201.097 C 270.447 201.035,270.183 200.984,269.537 200.984 C 268.891 200.984,268.627 201.035,268.950 201.097 M273.259 201.100 C 273.655 201.160,274.242 201.159,274.563 201.097 C 274.884 201.035,274.560 200.986,273.842 200.988 C 273.125 200.990,272.862 201.041,273.259 201.100 " stroke="none" fill="#beaea1" fill-rule="evenodd"></path></g></svg>